<?xml version="1.0" standalone="no"?>
<!DOCTYPE svg PUBLIC "-//W3C//DTD SVG 1.1//EN" "http://www.w3.org/Graphics/SVG/1.1/DTD/svg11.dtd" >
<svg xmlns="http://www.w3.org/2000/svg" xmlns:xlink="http://www.w3.org/1999/xlink" version="1.1">
<metadata></metadata>
<defs>
<font id="envy_code_rbold" horiz-adv-x="1100" >
<font-face units-per-em="2048" ascent="1638" descent="-410" />
<missing-glyph horiz-adv-x="500" />
<glyph horiz-adv-x="0" />
<glyph unicode="&#xd;" />
<glyph unicode=" " />
<glyph unicode="!" d="M316 0v316h316v-316h-316zM316 474v948h316v-948h-316z" />
<glyph unicode="&#x22;" d="M158 948v474h316v-474h-316zM632 948v474h316v-474h-316z" />
<glyph unicode="#" d="M0 474v158h158v158h-158v158h158v316h316v-316h158v316h158v-316h158v-158h-158v-158h158v-158h-158v-316h-158v316h-158v-316h-316v316h-158zM474 632h158v158h-158v-158z" />
<glyph unicode="$" d="M0 158v158h316v316q-59 0 -116 27t-101.5 71.5t-71.5 101.5t-27 116t29.5 116t89 101.5t148 71.5t207.5 27v158h158v-158h316v-158h-316v-316q59 0 116 -27.5t101.5 -72t71.5 -101.5t27 -115q0 -60 -29.5 -117t-89 -101t-148.5 -71t-207 -27v-158h-158v158h-316zM316 948 q0 -30 13.5 -58t36 -50.5t50.5 -36t58 -13.5v316q-30 0 -58 -13.5t-50.5 -36t-36 -50.5t-13.5 -58zM474 316q30 0 58 13.5t50.5 36t36 50.5t13.5 58t-13.5 58t-36 50.5t-50.5 36t-58 13.5v-316z" />
<glyph unicode="%" d="M0 158l711 1106h237l-711 -1106h-237zM0 1027q0 49 18.5 92t51 75.5t75.5 51t92 18.5t92 -18.5t75.5 -51t51 -75.5t18.5 -92t-18.5 -92t-51 -75.5t-75.5 -51t-92 -18.5t-92 18.5t-75.5 51t-51 75.5t-18.5 92zM158 1027q0 -33 23 -56t56 -23t56 23t23 56t-23 56t-56 23 t-56 -23t-23 -56zM474 395q0 49 18.5 92t51 75.5t75.5 51t92 18.5t92 -18.5t75.5 -51t51 -75.5t18.5 -92t-18.5 -92t-51 -75.5t-75.5 -51t-92 -18.5t-92 18.5t-75.5 51t-51 75.5t-18.5 92zM632 395q0 -33 23 -56t56 -23t56 23t23 56t-23 56t-56 23t-56 -23t-23 -56z" />
<glyph unicode="&#x26;" d="M0 474q0 67 2 126t13 109t36 90t70 70q-30 17 -52.5 34t-38 42.5t-23 63.5t-7.5 97q0 89 37 149.5t95 97.5t128 53t135 16q43 0 89.5 -7t90.5 -22.5t83 -40t68.5 -59.5t46.5 -81.5t17 -105.5t-26.5 -116t-68 -101.5t-91 -71.5t-95.5 -27l250 -316q9 23 15 41t9 35 t4.5 36.5t2.5 45.5h316q-13 -89 -40 -150t-57 -102t-58 -66t-43 -41l198 -273h-340l-71 107q-31 -25 -59.5 -45t-62 -33.5t-76.5 -21t-102 -7.5q-79 0 -139 7.5t-104 27.5t-73 54t-46.5 86.5t-25 126t-7.5 172.5zM316 632q0 -148 13.5 -240.5t36 -144.5t50.5 -70.5t58 -18.5 t58 8t50.5 19.5t36 25.5t13.5 26zM316 1106q0 -15 1 -30.5t8.5 -34t23.5 -41t46 -52.5q30 0 46 13.5t23.5 36t8.5 50.5t1 58t-1 58t-8.5 50.5t-23.5 36t-46 13.5t-46 -13.5t-23.5 -36t-8.5 -50.5t-1 -58z" />
<glyph unicode="'" d="M316 948v474h316v-474h-316z" />
<glyph unicode="(" d="M158 632q0 97 27 205t74 212.5t110 199.5t133 166t143.5 117.5t144.5 46.5v-157q-36 -20 -75.5 -62t-77.5 -105t-74 -136t-63.5 -154t-43.5 -165.5t-16 -167.5q0 -94 15.5 -182.5t43.5 -169t63.5 -151t75 -126.5t78 -99t74.5 -63v-157q-71 0 -144.5 46t-143.5 117.5 t-133.5 166.5t-110 199.5t-73.5 212t-27 206.5z" />
<glyph unicode=")" d="M158 -159v-157q71 0 144.5 46t143.5 117.5t133.5 166.5t110 199.5t73.5 212t27 206.5q0 97 -27 205t-74 212.5t-110 199.5t-133 166t-143.5 117.5t-144.5 46.5v-157q36 -20 75.5 -62t77.5 -105t74 -136t63.5 -154t43.5 -165.5t16 -167.5q0 -94 -15.5 -182.5t-43.5 -169 t-63.5 -151t-75 -126.5t-78 -99t-74.5 -63z" />
<glyph unicode="*" d="M0 1106v158l316 -79v237h316v-237l316 79v-158l-237 -79l79 -316h-237l-79 237l-79 -237h-237l79 316z" />
<glyph unicode="+" d="M0 632v158h316v316h316v-316h316v-158h-316v-316h-316v316h-316z" />
<glyph unicode="," d="M316 158q0 33 12.5 61.5t34 50t50 34t61.5 12.5t61.5 -12.5t50 -34t34 -50t12.5 -61.5v-158q0 -59 -15 -116t-44.5 -101.5t-74 -71.5t-103.5 -27q-33 0 -56 23t-23 56t23 56t56 23q30 0 46 10.5t23.5 30.5t8.5 49.5t1 67.5q-33 0 -61.5 12.5t-50 34t-34 50t-12.5 61.5z " />
<glyph unicode="-" d="M158 632v158h790v-158h-790z" />
<glyph unicode="." d="M316 158q0 33 12.5 61.5t34 50t50 34t61.5 12.5t61.5 -12.5t50 -34t34 -50t12.5 -61.5t-12.5 -61.5t-34 -50t-50 -34t-61.5 -12.5t-61.5 12.5t-50 34t-34 50t-12.5 61.5z" />
<glyph unicode="/" d="M0 -158l632 1580h316l-632 -1580h-316z" />
<glyph unicode="0" d="M0 711q0 79 13 162.5t39.5 162.5t66 149t92 123t118.5 83.5t145 30.5t145.5 -30.5t119 -83.5t92 -123t65.5 -149t39 -162.5t13 -162.5t-13 -162.5t-39 -162.5t-65.5 -149t-92 -123t-119 -83.5t-145.5 -30.5t-145 30.5t-118.5 83.5t-92 123t-66 149t-39.5 162.5t-13 162.5 zM316 395l237 790q2 20 1 35t-9 24.5t-24.5 14.5t-46.5 5q-49 0 -80 -42t-48 -116t-23.5 -175.5t-6.5 -219.5v-316zM395 237q1 -22 10 -40q8 -15 23.5 -27t45.5 -12q49 0 80 42t48 116t23.5 175t6.5 220v316z" />
<glyph unicode="1" d="M158 0v158h158v948h-158v161q18 -3 39 -3q41 0 77 12.5t63 34t42.5 50t15.5 61.5h237v-1264h158v-158h-632z" />
<glyph unicode="2" d="M0 0h948v158h-632v158q0 44 23 82.5t60 74t84 68t95 64.5q67 44 134 89.5t119.5 89.5t85.5 85.5t33 78.5v158q0 65 -31 122.5t-85 100.5t-126 68t-154 25h-158q-82 0 -154 -25t-126 -68t-85 -100.5t-31 -122.5h318q0 33 6 61.5t16.5 50t25 34t30.5 12.5h158 q16 0 30.5 -12.5t25 -34t16.5 -50t6 -61.5v-127q0 -36 -19.5 -68t-51.5 -62.5t-74 -60.5t-88 -60q-71 -47 -142 -96.5t-128 -97.5t-93 -93t-36 -85v-356z" />
<glyph unicode="3" d="M0 0v158h395q237 0 237 237t-237 237h-237v158h237q237 0 237 237t-237 237h-395v158h474q89 0 174 -28.5t152 -80t107.5 -124.5t40.5 -162q0 -59 -11.5 -106t-32 -84.5t-50 -68t-65.5 -57.5q36 -27 65.5 -57.5t50 -68t32 -84.5t11.5 -106q0 -89 -40.5 -162 t-107.5 -124.5t-152 -80t-174 -28.5h-474z" />
<glyph unicode="4" d="M0 316v158l553 948h237v-948h158v-158h-158v-316h-316v316h-474zM237 474h237v395z" />
<glyph unicode="5" d="M0 0v158h474q59 0 91 15t47 44.5t17.5 74t2.5 103.5t-2.5 103.5t-17.5 74t-47 44.5t-91 15h-474v790h948v-158h-632v-474h237q89 0 162 -28.5t124.5 -80t80 -124.5t28.5 -162t-28.5 -162t-80 -124.5t-124.5 -80t-162 -28.5h-553z" />
<glyph unicode="6" d="M0 395q0 39 1 83.5t8.5 94t23.5 104t46 113.5l237 632h316l-237 -632h79q89 0 174 -28.5t152 -80t107.5 -124.5t40.5 -162t-40.5 -162t-107.5 -124.5t-152 -80t-174 -28.5q-119 0 -207.5 28.5t-148 80t-89 124.5t-29.5 162zM316 395q0 -59 2.5 -103.5t17.5 -74t47 -44.5 t91 -15q49 0 80 15t48 44.5t23.5 74t6.5 103.5t-2.5 103.5t-17.5 74t-47 44.5t-91 15t-91 -15t-47 -44.5t-17.5 -74t-2.5 -103.5z" />
<glyph unicode="7" d="M0 1264v158h948v-158l-474 -1264h-316l474 1264h-632z" />
<glyph unicode="8" d="M0 395q0 59 13.5 105t36 83t50.5 67.5t58 60.5q-30 30 -58 60.5t-50.5 67.5t-36 83t-13.5 105q0 89 29.5 162t89 124.5t148 80t207.5 28.5q118 0 207 -28.5t148.5 -80t89 -124.5t29.5 -162q0 -59 -13.5 -105t-36 -83t-50.5 -67.5t-58 -60.5q30 -30 58 -60.5t50.5 -67.5 t36 -83t13.5 -105q0 -89 -29.5 -162t-89 -124.5t-148.5 -80t-207 -28.5q-119 0 -207.5 28.5t-148 80t-89 124.5t-29.5 162zM316 395q0 -59 6.5 -103.5t23.5 -74t48 -44.5t80 -15t80 15t48 44.5t23.5 74t6.5 103.5t-6.5 103.5t-23.5 74t-48 44.5t-80 15t-80 -15t-48 -44.5 t-23.5 -74t-6.5 -103.5zM316 1027q0 -59 2.5 -103.5t17.5 -74t47 -44.5t91 -15t91 15t47 44.5t17.5 74t2.5 103.5t-2.5 103.5t-17.5 74t-47 44.5t-91 15t-91 -15t-47 -44.5t-17.5 -74t-2.5 -103.5z" />
<glyph unicode="9" d="M0 1027q0 89 40.5 162t107.5 124.5t152 80t174 28.5q118 0 207 -28.5t148.5 -80t89 -124.5t29.5 -162q0 -39 -1 -83.5t-8.5 -94t-23.5 -104t-46 -113.5l-237 -632h-316l237 632h-79q-89 0 -174 28.5t-152 80t-107.5 124.5t-40.5 162zM316 1027q0 -59 2.5 -103.5t17.5 -74 t47 -44.5t91 -15t91 15t47 44.5t17.5 74t2.5 103.5t-2.5 103.5t-17.5 74t-47 44.5t-91 15q-49 0 -80 -15t-48 -44.5t-23.5 -74t-6.5 -103.5z" />
<glyph unicode=":" d="M316 158q0 33 12.5 61.5t34 50t50 34t61.5 12.5t61.5 -12.5t50 -34t34 -50t12.5 -61.5t-12.5 -61.5t-34 -50t-50 -34t-61.5 -12.5t-61.5 12.5t-50 34t-34 50t-12.5 61.5zM316 790q0 33 12.5 61.5t34 50t50 34t61.5 12.5t61.5 -12.5t50 -34t34 -50t12.5 -61.5t-12.5 -61.5 t-34 -50t-50 -34t-61.5 -12.5t-61.5 12.5t-50 34t-34 50t-12.5 61.5z" />
<glyph unicode=";" d="M316 158q0 33 12.5 61.5t34 50t50 34t61.5 12.5t61.5 -12.5t50 -34t34 -50t12.5 -61.5v-158q0 -59 -15 -116t-44.5 -101.5t-74 -71.5t-103.5 -27q-33 0 -56 23t-23 56t23 56t56 23q30 0 46 10.5t23.5 30.5t8.5 49.5t1 67.5q-33 0 -61.5 12.5t-50 34t-34 50t-12.5 61.5z M316 790q0 33 12.5 61.5t34 50t50 34t61.5 12.5t61.5 -12.5t50 -34t34 -50t12.5 -61.5t-12.5 -61.5t-34 -50t-50 -34t-61.5 -12.5t-61.5 12.5t-50 34t-34 50t-12.5 61.5z" />
<glyph unicode="&#x3c;" d="M0 711l474 553h316l-474 -553l474 -553h-316z" />
<glyph unicode="=" d="M0 474v158h948v-158h-948zM0 790v158h948v-158h-948z" />
<glyph unicode="&#x3e;" d="M0 158h316l474 553l-474 553h-316l474 -553z" />
<glyph unicode="?" d="M0 948v158q0 89 40.5 149.5t107.5 97.5t152 53t174 16t174 -16t152 -53t107.5 -97.5t40.5 -149.5v-237q0 -20 -23.5 -45.5t-58.5 -54t-76 -58.5t-76 -58.5t-58.5 -54t-23.5 -45.5v-79h-316v158q0 20 23.5 45.5t58.5 54t76 58.5t76 58.5t58.5 54t23.5 45.5v79 q0 59 -6.5 103.5t-23.5 74t-48 44.5t-80 15t-80 -15t-48 -44.5t-23.5 -74t-6.5 -103.5v-79h-316zM316 0v316h316v-316h-316z" />
<glyph unicode="@" d="M0 158v790q0 474 474 474t474 -474v-790h-237q-59 0 -103.5 35t-74 91.5t-44.5 127t-15 141.5q0 76 15 147t44.5 126t74 88.5t103.5 33.5h79q0 59 -15 116t-44.5 101.5t-74 71.5t-103.5 27t-103.5 -27t-74 -71.5t-44.5 -101.5t-15 -116v-790q0 -59 21 -116t55.5 -101.5 t78.5 -71.5t91 -27h386v-158h-386q-122 0 -225 29.5t-178 89t-117 148t-42 207.5zM632 553q0 -118 23 -177.5t56 -59.5h79v474h-79q-33 0 -56 -59.5t-23 -177.5z" />
<glyph unicode="A" d="M0 0v1027q0 89 40.5 162t107.5 124.5t152 80t174 28.5t174 -28.5t152 -80t107.5 -124.5t40.5 -162v-1027h-316v632h-316v-632h-316zM316 790h316v237q0 59 -2.5 103.5t-17.5 74t-47 44.5t-91 15t-91 -15t-47 -44.5t-17.5 -74t-2.5 -103.5v-237z" />
<glyph unicode="B" d="M0 0v1422h474q89 0 174 -28.5t152 -80t107.5 -124.5t40.5 -162q0 -59 -11 -106t-32 -84.5t-50 -68t-65 -57.5q36 -27 65 -57.5t50 -68t32 -84.5t11 -106q0 -89 -40.5 -162t-107.5 -124.5t-152 -80t-174 -28.5h-474zM316 158h158q59 0 91 15t47 44.5t17.5 74t2.5 103.5 t-6.5 103.5t-23.5 74t-48 44.5t-80 15h-158v-474zM316 790h158q59 0 91 15t47 44.5t17.5 74t2.5 103.5t-6.5 103.5t-23.5 74t-48 44.5t-80 15h-158v-474z" />
<glyph unicode="C" d="M0 395v632q0 89 40.5 162t107.5 124.5t152 80t174 28.5t174 -27t151 -71.5t105 -101.5q36 -53 36 -108v-8h-308q0 30 -10 58t-30 50.5t-49.5 36t-68.5 13.5q-49 0 -80 -18.5t-48 -51t-23.5 -75.5t-6.5 -92v-632q0 -49 6.5 -92t23.5 -75.5t48 -51t80 -18.5q39 0 68.5 13.5 t49.5 36t30 50.5t10 58h308v-8q0 -55 -36 -108q-39 -57 -105 -101.5t-151 -71.5t-174 -27t-174 28.5t-152 80t-107.5 124.5t-40.5 162z" />
<glyph unicode="D" d="M0 0v1422h474q89 0 174 -28.5t152 -80t107.5 -124.5t40.5 -162v-632q0 -89 -40.5 -162t-107.5 -124.5t-152 -80t-174 -28.5h-474zM316 158h158q59 0 91 15t47 44.5t17.5 74t2.5 103.5v632q0 59 -2.5 103.5t-17.5 74t-47 44.5t-91 15h-158v-1106z" />
<glyph unicode="E" d="M0 0v1422h948v-158h-632v-474h474v-158h-474v-474h632v-158h-948z" />
<glyph unicode="F" d="M0 0v1422h948v-158h-632v-474h474v-158h-474v-632h-316z" />
<glyph unicode="G" d="M0 395v632q0 59 20 111.5t54.5 96.5t81 78.5t99 58.5t108.5 37t111 13q89 0 174 -27t152 -71.5t107.5 -101.5t40.5 -116h-316q0 30 -2.5 58t-17.5 50.5t-47 36t-91 13.5t-91 -15t-47 -44.5t-17.5 -74t-2.5 -103.5v-632q0 -59 2.5 -103.5t17.5 -74t47 -44.5t91 -15t91 15 t47 44.5t17.5 74t2.5 103.5v237h-158v158h474v-790h-316v79q-25 -18 -41.5 -33t-32.5 -25t-35 -15.5t-49 -5.5q-89 0 -174 28.5t-152 80t-107.5 124.5t-40.5 162z" />
<glyph unicode="H" d="M0 0v1422h316v-632h316v632h316v-1422h-316v632h-316v-632h-316z" />
<glyph unicode="I" d="M0 0v158h316v1106h-316v158h948v-158h-316v-1106h316v-158h-948z" />
<glyph unicode="J" d="M0 395v79h316v-79q0 -59 2.5 -103.5t17.5 -74t47 -44.5t91 -15t91 15t47 44.5t17.5 74t2.5 103.5v1027h316v-1027q0 -89 -40.5 -162t-107.5 -124.5t-152 -80t-174 -28.5t-174 28.5t-152 80t-107.5 124.5t-40.5 162z" />
<glyph unicode="K" d="M0 0v1422h316v-632l316 632h324l-403 -711l403 -711h-324l-316 632v-632h-316z" />
<glyph unicode="L" d="M0 0v1422h316v-1264h632v-158h-948z" />
<glyph unicode="M" d="M0 1418v4h237l237 -553l237 553h237v-1422h-316v948l-158 -395l-158 395v-948h-315q-1 1415 -1 1418z" />
<glyph unicode="N" d="M0 0v1422h237l395 -790v790h316v-1422h-237l-395 790v-790h-316z" />
<glyph unicode="O" d="M0 395v632q0 89 40.5 162t107.5 124.5t152 80t174 28.5t174 -28.5t152 -80t107.5 -124.5t40.5 -162v-632q0 -89 -40.5 -162t-107.5 -124.5t-152 -80t-174 -28.5t-174 28.5t-152 80t-107.5 124.5t-40.5 162zM316 395q0 -59 2.5 -103.5t17.5 -74t47 -44.5t91 -15t91 15 t47 44.5t17.5 74t2.5 103.5v632q0 59 -2.5 103.5t-17.5 74t-47 44.5t-91 15t-91 -15t-47 -44.5t-17.5 -74t-2.5 -103.5v-632z" />
<glyph unicode="P" d="M0 0v1422h474q89 0 174 -28.5t152 -80t107.5 -124.5t40.5 -162t-40.5 -162t-107.5 -124.5t-152 -80t-174 -28.5h-158v-632h-316zM316 790h158q59 0 91 15t47 44.5t17.5 74t2.5 103.5t-2.5 103.5t-17.5 74t-47 44.5t-91 15h-158v-474z" />
<glyph unicode="Q" d="M0 395v632q0 89 40.5 162t107.5 124.5t152 80t174 28.5t174 -28.5t152 -80t107.5 -124.5t40.5 -162v-632q0 -237 -237 -237q30 0 70.5 -27t77.5 -71.5t63 -101.5t26 -116h-316q0 30 -1 58.5t-5.5 51.5t-15.5 38.5t-30 19.5q-50 -10 -106 -10q-89 0 -174 28.5t-152 80 t-107.5 124.5t-40.5 162zM316 395q0 -59 2.5 -103.5t17.5 -74t47 -44.5t91 -15t91 15t47 44.5t17.5 74t2.5 103.5v632q0 59 -2.5 103.5t-17.5 74t-47 44.5t-91 15t-91 -15t-47 -44.5t-17.5 -74t-2.5 -103.5v-632z" />
<glyph unicode="R" d="M0 0v1422h553q82 0 154 -31t125.5 -84.5t84.5 -125.5t31 -154q0 -70 -23 -133t-64 -114t-97 -87t-121 -51q312 -639 312 -642h-323q-155 316 -235.5 472t-80.5 158v-630h-316zM316 790h158q49 0 80 18.5t48 51t23.5 75.5t6.5 92t-6.5 92t-23.5 75.5t-48 51t-80 18.5h-158 v-474z" />
<glyph unicode="S" d="M0 0v158h474q59 0 91 15t47 44.5t17.5 74t2.5 103.5t-2.5 103.5t-17.5 74t-47 44.5t-91 15q-119 0 -207.5 28.5t-148 80t-89 124.5t-29.5 162t40.5 162t107.5 124.5t152 80t174 28.5h474v-158h-474q-59 0 -91 -15t-47 -44.5t-17.5 -74t-2.5 -103.5t2.5 -103.5t17.5 -74 t47 -44.5t91 -15q118 0 207 -28.5t148.5 -80t89 -124.5t29.5 -162t-40.5 -162t-107.5 -124.5t-152 -80t-174 -28.5h-474z" />
<glyph unicode="T" d="M0 1264v158h948v-158h-316v-1264h-316v1264h-316z" />
<glyph unicode="U" d="M0 395v395v632h316v-1027q0 -59 2.5 -103.5t17.5 -74t47 -44.5t91 -15t91 15t47 44.5t17.5 74t2.5 103.5v1027h316v-1027q0 -89 -40.5 -162t-107.5 -124.5t-152 -80t-174 -28.5t-174 28.5t-152 80t-107.5 124.5t-40.5 162z" />
<glyph unicode="V" d="M0 1422h316l158 -948l158 948h320l-316 -1422h-320z" />
<glyph unicode="W" d="M0 0v1422h316v-1074l79 442h158l79 -442v1074h316v-1422h-316l-158 316l-158 -316h-316z" />
<glyph unicode="X" d="M0 0l314 711l-314 711h316l158 -395l158 395h318l-320 -711l320 -711h-318l-158 395l-158 -395h-316z" />
<glyph unicode="Y" d="M0 1422h316l158 -632l158 632h324l-324 -948v-474h-316v474z" />
<glyph unicode="Z" d="M0 0v158l632 1106h-632v158h948v-158l-632 -1106h632v-158h-948z" />
<glyph unicode="[" d="M158 -316v1896h632v-158h-316v-1580h316v-158h-632z" />
<glyph unicode="\" d="M158 1422l632 -1580h316l-632 1580h-316z" />
<glyph unicode="]" d="M158 -158v-158h632v1896h-632v-158h316v-1580h-316z" />
<glyph unicode="^" d="M0 790l316 632h316l316 -632h-237l-237 442l-237 -442h-237z" />
<glyph unicode="_" d="M0 -316h1106v-158h-1106v158z" />
<glyph unicode="`" d="M158 1501l79 79l395 -237l-79 -79z" />
<glyph unicode="a" d="M0 316q0 89 37 149.5t95 97.5t128 53t135 16h237v79q0 237 -237 237h-237v158h316q89 0 174 -28.5t152 -80t107.5 -124.5t40.5 -162v-711h-553q-65 0 -135 16t-128 53t-95 97.5t-37 149.5zM316 316q0 -59 12.5 -91t34 -47t50 -17.5t61.5 -2.5h158v316h-158 q-33 0 -61.5 -2.5t-50 -17.5t-34 -47t-12.5 -91z" />
<glyph unicode="b" d="M0 0v1422h316v-396q30 30 58 46t56.5 23.5t59 9t63.5 1.5q89 0 162 -27t124.5 -71.5t80 -101.5t28.5 -116v-474q0 -59 -28.5 -116t-80 -101.5t-124.5 -71.5t-162 -27q-33 0 -63.5 1t-59 8.5t-56.5 23.5t-58 46v-79h-316zM316 395q0 -59 2.5 -103.5t17.5 -74t47 -44.5 t91 -15t91 15t47 44.5t17.5 74t2.5 103.5v316q0 49 -6.5 92t-23.5 75.5t-48 51t-80 18.5q-48 0 -78.5 -15t-48.5 -44.5t-24.5 -74t-6.5 -103.5v-316z" />
<glyph unicode="c" d="M0 316v474q0 82 40.5 141.5t107.5 98.5t152 57.5t174 18.5t174 -16t151 -53t105 -97q36 -56 36 -137v-13h-308q0 30 -2.5 58t-17.5 50.5t-47 36t-91 13.5t-91 -15t-47 -44.5t-17.5 -74t-2.5 -103.5v-316q0 -59 2.5 -103.5t17.5 -74t47 -44.5t91 -15t91 13.5t47 36 t17.5 50.5t2.5 58h308v-13q0 -81 -36 -137q-39 -60 -105 -97t-151 -53t-174 -16t-174 18.5t-152 57.5t-107.5 98.5t-40.5 141.5z" />
<glyph unicode="d" d="M0 316v474q0 59 28.5 116t80 101.5t124.5 71.5t162 27q33 0 63.5 -1.5t59 -9t56.5 -23.5t58 -46v396h316v-1422h-316v79q-30 -30 -58 -46t-56.5 -23.5t-59 -8.5t-63.5 -1q-89 0 -162 27t-124.5 71.5t-80 101.5t-28.5 116zM316 395q0 -59 2.5 -103.5t17.5 -74t47 -44.5 t91 -15t91 15t47 44.5t17.5 74t2.5 103.5v316q0 59 -6.5 103.5t-24.5 74t-48.5 44.5t-78.5 15q-49 0 -80 -18.5t-48 -51t-23.5 -75.5t-6.5 -92v-316z" />
<glyph unicode="e" d="M0 395v316q0 89 40.5 162t107.5 124.5t152 80t174 28.5t174 -28.5t152 -80t107.5 -124.5t40.5 -162v-237h-632q0 -79 2 -138t17.5 -98.5t47.5 -59.5t91 -20h474v-158h-553q-89 0 -162 31t-124.5 84.5t-80 125.5t-28.5 154zM316 632h316q0 89 -2.5 149.5t-17.5 97.5 t-47 53t-91 16t-91 -16t-47 -53t-17.5 -97.5t-2.5 -149.5z" />
<glyph unicode="f" d="M0 790v158h158v158q0 89 40.5 149.5t107.5 97.5t152 53t174 16h316v-158h-237q-237 0 -237 -237v-79h316v-158h-316v-790h-316v790h-158z" />
<glyph unicode="g" d="M0 316v474q0 89 28.5 149.5t80 97.5t124.5 53t162 16q33 0 63.5 -1.5t59 -9t56.5 -23.5t58 -46v80h316v-1264q0 -89 -28.5 -149.5t-80 -97.5t-124.5 -53t-162 -16h-395v158h316q59 0 91 15t47 44.5t17.5 74t2.5 103.5v158q0 -30 -24.5 -46t-60.5 -23.5t-77.5 -8.5 t-74.5 -1q-89 0 -162 16t-124.5 53t-80 97.5t-28.5 149.5zM316 395q0 -59 2.5 -103.5t17.5 -74t47 -44.5t91 -15t91 15t47 44.5t17.5 74t2.5 103.5v326q0 55 -2.5 97.5t-17.5 71.5t-47 43.5t-91 14.5t-91 -15t-47 -44.5t-17.5 -74t-2.5 -103.5v-316z" />
<glyph unicode="h" d="M0 0v1422h316v-396q0 30 15 46t44.5 23.5t74 9t103.5 1.5q89 0 162 -16t124.5 -53t80 -97.5t28.5 -149.5v-790h-316v711q0 59 -2.5 103.5t-17.5 74t-47 44.5t-91 15t-91 -15t-47 -44.5t-17.5 -74t-2.5 -103.5v-711h-316z" />
<glyph unicode="i" d="M158 948v158h474v-1106h-316v948h-158zM316 1264v158h316v-158h-316z" />
<glyph unicode="j" d="M0 -158h237q237 0 237 237v869h-158v158h474v-1106q0 -158 -118.5 -237t-355.5 -79h-316v158zM474 1264v158h316v-158h-316z" />
<glyph unicode="k" d="M0 0v1422h316v-711l316 395h316l-474 -553l477 -553h-319l-316 395v-395h-316z" />
<glyph unicode="l" d="M158 1264v158h474v-1422h-316v1264h-158z" />
<glyph unicode="m" d="M0 0v1106h316q30 0 58 -13.5t50.5 -36t36 -65.5t13.5 -73q0 30 15 73t44.5 65.5t74 36t103.5 13.5t103.5 -16t74 -53t44.5 -112.5t15 -164.5v-760h-237v760q0 30 -1 58t-8.5 50.5t-23.5 36t-46 13.5t-46 -13.5t-23.5 -36t-8.5 -50.5t-1 -58v-760h-158v760q0 59 -13.5 91 t-36 47t-50.5 17.5t-58 2.5v-918h-237z" />
<glyph unicode="n" d="M0 0v1106h316v-80q0 30 24.5 46t60.5 23.5t77.5 9t74.5 1.5q89 0 162 -16t124.5 -53t80 -97.5t28.5 -149.5v-790h-316v711q0 59 -2.5 103.5t-17.5 74t-47 44.5t-91 15t-91 -16t-47 -47t-17.5 -75t-2.5 -99v-711h-316z" />
<glyph unicode="o" d="M0 316v474q0 89 40.5 149.5t107.5 97.5t152 53t174 16t174 -16t152 -53t107.5 -97.5t40.5 -149.5v-474q0 -89 -40.5 -149.5t-107.5 -97.5t-152 -53t-174 -16t-174 16t-152 53t-107.5 97.5t-40.5 149.5zM316 395q0 -59 2.5 -103.5t17.5 -74t47 -44.5t91 -15t91 15t47 44.5 t17.5 74t2.5 103.5v316q0 59 -2.5 103.5t-17.5 74t-47 44.5t-91 15t-91 -15t-47 -44.5t-17.5 -74t-2.5 -103.5v-316z" />
<glyph unicode="p" d="M0 -474v1580h316v-79q30 30 59.5 46t59 23.5t59 8.5t59.5 1q89 0 162 -16t124.5 -53t80 -97.5t28.5 -149.5v-474q0 -89 -28.5 -149.5t-80 -97.5t-124.5 -53t-162 -16q-30 0 -59.5 1t-59 8.5t-59 23.5t-59.5 46v-553h-316zM316 395q0 -59 6.5 -103.5t24.5 -74t48.5 -44.5 t78.5 -15q49 0 80 18.5t48 51t23.5 75.5t6.5 92v316q0 49 -6.5 92t-23.5 75.5t-48 51t-80 18.5q-48 0 -78.5 -15t-48.5 -44.5t-24.5 -74t-6.5 -103.5v-316z" />
<glyph unicode="q" d="M0 316v474q0 89 28.5 149.5t80 97.5t124.5 53t162 16q30 0 59.5 -1t59 -8.5t59 -23.5t59.5 -46v79h316v-1580h-316v553q-30 -30 -59.5 -46t-59 -23.5t-59 -8.5t-59.5 -1q-89 0 -162 16t-124.5 53t-80 97.5t-28.5 149.5zM316 395q0 -49 6.5 -92t23.5 -75.5t48 -51 t80 -18.5q48 0 78.5 15t48.5 44.5t24.5 74t6.5 103.5v316q0 59 -6.5 103.5t-24.5 74t-48.5 44.5t-78.5 15q-49 0 -80 -18.5t-48 -51t-23.5 -75.5t-6.5 -92v-316z" />
<glyph unicode="r" d="M0 0v1106h316v-80q30 30 59.5 46t59 23.5t59 9t59.5 1.5q89 0 161.5 -16t123.5 -53t78 -97q24 -54 24 -132v-18h-308q-8 23 -12 43.5t-8 38t-11.5 32t-22.5 24t-40 15t-64 5.5q-59 0 -91 -15t-47 -44.5t-17.5 -74t-2.5 -103.5v-711h-316z" />
<glyph unicode="s" d="M0 0v158h474q59 0 91 13.5t47 35.5t17.5 50.5t2.5 58.5q0 29 -2.5 57t-17.5 50.5t-47 36.5t-91 14q-89 0 -174 16t-152 53t-107.5 97.5t-40.5 149.5t40.5 149.5t107.5 97.5t152 53t174 16h474v-158h-474q-59 0 -91 -13.5t-47 -36t-17.5 -50.5t-2.5 -58t2.5 -58 t17.5 -50.5t47 -36t91 -13.5q89 0 174 -16t152 -53t107.5 -97t40.5 -148q0 -90 -40.5 -150.5t-107.5 -98t-152 -53.5t-174 -16h-474z" />
<glyph unicode="t" d="M0 948v158h158v316h316v-316h316v-158h-316v-553q0 -237 237 -237h237v-158h-316q-89 0 -174 16t-152 53t-107.5 97.5t-40.5 149.5v632h-158z" />
<glyph unicode="u" d="M0 316v790h316v-711q0 -59 2.5 -103.5t17.5 -74t47 -44.5t91 -15t91 19t47 51.5t17.5 75.5t2.5 91v711h316v-1106h-316v79q-30 -30 -58 -46t-56.5 -23.5t-59 -8.5t-63.5 -1q-89 0 -162 16t-124.5 53t-80 97.5t-28.5 149.5z" />
<glyph unicode="v" d="M0 1106h316l158 -790l158 790h316l-316 -1106h-316z" />
<glyph unicode="w" d="M0 395v711h237v-790q0 -30 1 -58t8.5 -50.5t23.5 -36t46 -13.5t46 26t23.5 63t8.5 77.5t1 70.5v237h158v-237q0 -30 1 -70.5t8.5 -77.5t23.5 -63t46 -26t46 13.5t23.5 36t8.5 50.5t1 58v790h237v-711q0 -89 -16 -162t-53 -124.5t-97.5 -80t-149.5 -28.5q-30 0 -58 13.5 t-50.5 36t-36 50.5t-13.5 58q0 -30 -13.5 -58t-36 -50.5t-50.5 -36t-58 -13.5q-89 0 -149.5 28.5t-97.5 80t-53 124.5t-16 162z" />
<glyph unicode="x" d="M0 0l316 553l-316 553h316l158 -316l158 316h318l-318 -553l318 -553h-318l-158 316l-158 -316h-316z" />
<glyph unicode="y" d="M0 316v790h316v-711q0 -59 2.5 -103.5t17.5 -74t47 -44.5t91 -15t91 15t47 44.5t17.5 74t2.5 103.5v711h316v-1264q0 -89 -28.5 -149.5t-80 -97.5t-124.5 -53t-162 -16h-395v158h316q59 0 91 15t47 44.5t17.5 74t2.5 103.5v158q0 -30 -24.5 -46t-60.5 -23.5t-77.5 -8.5 t-74.5 -1q-89 0 -162 16t-124.5 53t-80 97.5t-28.5 149.5z" />
<glyph unicode="z" d="M0 0v158l632 790h-632v158h948v-158l-632 -790h632v-158h-948z" />
<glyph unicode="{" d="M0 632v158h309q-18 1 -18 29t-8 46.5t-18 42.5q-16 32 -35 71.5t-35 85t-26.5 95.5t-10.5 104q0 59 34 116t95.5 101.5t148 71.5t192.5 27h320v-158h-320q-41 0 -71 -13.5t-50.5 -36t-31 -50.5t-11.5 -58q10 -41 29 -96.5t40 -114.5q15 -42 27 -81.5t15 -70.5t-7 -50 t-38 -19q-9 0 -15.5 -29t-6.5 -71t6.5 -71t15.5 -29q51 0 72 -10t21 -29q0 -29 -12 -84t-31 -122t-41 -139t-41 -135l-18 -60t-14 -53q0 -30 17.5 -58t43 -50.5t53.5 -36t48 -13.5h320v-158h-320q-106 0 -192.5 26.5t-148 70t-95.5 99.5t-34 114q23 132 55 244t58 193 q14 45 24 81.5t10 68.5q0 49 6 51h-311z" />
<glyph unicode="|" d="M316 -316v1896h316v-1896h-316z" />
<glyph unicode="}" d="M0 -158h320q20 0 48 13.5t53.5 36t43 50.5t17.5 58q-5 23 -14 53l-18 60q-20 63 -41.5 135t-40.5 139t-31 122t-12 84q0 19 21 29t72 10q9 0 15.5 29t6.5 71t-6.5 71t-15.5 29q-29 0 -38.5 19t-6.5 50t15 70.5t27 81.5q21 59 40 114.5t29 96.5q-1 30 -11.5 58t-31 50.5 t-51 36t-70.5 13.5h-320v158h320q106 0 192.5 -27t148 -71.5t95.5 -101.5t34 -116q0 -54 -10.5 -104t-26.5 -95.5t-35 -85t-35 -71.5q-11 -24 -18.5 -42.5t-7.5 -46.5t-18 -29h309v-158h-311q6 -2 6 -51q0 -32 10 -68.5t24 -81.5q26 -81 58 -193t55 -244q0 -58 -34 -114 t-95.5 -99.5t-148 -70t-192.5 -26.5h-320v158z" />
<glyph unicode="~" d="M0 474q0 39 1 89.5t7.5 103.5t21 103.5t41 90t67 63.5t99.5 24q44 0 81.5 -10.5t68 -27t55 -38t42.5 -43.5q43 -52 69 -118q20 -20 33.5 -15.5t22 24.5t13.5 50.5t7 63.5t2.5 63.5t0.5 50.5h316q0 -40 -1 -90t-7.5 -103t-21 -103.5t-41 -90t-67 -63.5t-99.5 -24 q-45 0 -82 10t-67.5 26.5t-55 38t-42.5 43.5q-43 52 -69 119q-20 20 -33.5 15.5t-22 -24.5t-13.5 -50.5t-7 -63.5t-2.5 -63.5t-0.5 -50.5h-316z" />
<glyph unicode="&#xa0;" />
<glyph unicode="&#xa1;" d="M316 0v948h316v-948h-316zM316 1106v316h316v-316h-316z" />
<glyph unicode="&#xa2;" d="M0 -158l790 1422h158l-790 -1422h-158zM0 316v474q0 82 40.5 141.5t107.5 98.5t152 57.5t174 18.5t174 -16t151 -53t105 -97.5t36 -149.5h-308q0 30 -2.5 58t-17.5 50.5t-47 36t-91 13.5t-91 -15t-47 -44.5t-17.5 -74t-2.5 -103.5v-316q0 -59 2.5 -103.5t17.5 -74 t47 -44.5t91 -15t91 13.5t47 36t17.5 50.5t2.5 58h308q3 -89 -36 -149.5t-105 -97.5t-151 -53t-174 -16t-174 18.5t-152 57.5t-107.5 98.5t-40.5 141.5z" />
<glyph unicode="&#xa3;" d="M0 0v158h158v474h-158v158h158v316q0 158 118.5 237t276.5 79t276.5 -79t118.5 -237h-316v118.5t-79 39.5h-39.5t-39.5 -79v-395h316v-158h-316v-474h474v-158h-948z" />
<glyph unicode="&#xa4;" d="M98 376l122 122q-30 46 -46 99.5t-16 113.5q0 59 16 112.5t46 100.5l-122 122l120 120l122 -122q46 29 99.5 45.5t113.5 16.5q59 0 112.5 -16.5t100.5 -45.5l122 122l120 -120l-122 -122q29 -47 45.5 -100.5t16.5 -112.5q0 -60 -16.5 -113.5t-45.5 -99.5l122 -122 l-120 -120l-122 122q-47 -30 -100.5 -46t-112.5 -16q-60 0 -113.5 16t-99.5 46l-122 -122zM474 711q0 -59 1 -103.5t8.5 -74t23.5 -44.5t46 -15t46 15t23.5 44.5t8.5 74t1 103.5t-1 103.5t-8.5 74t-23.5 44.5t-46 15t-46 -15t-23.5 -44.5t-8.5 -74t-1 -103.5z" />
<glyph unicode="&#xa5;" d="M0 158v158h321v158h-321v158h269l-258 790h310l155 -632l154 632h318l-265 -790h265v-158h-318v-158h318v-158h-318v-158h-309v158h-321z" />
<glyph unicode="&#xa6;" d="M316 -316v790h316v-790h-316zM316 790v790h316v-790h-316z" />
<glyph unicode="&#xa7;" d="M0 0h474q59 0 91 13.5t47 36t17.5 50.5t2.5 58t-3.5 58t-26 50.5t-70.5 36t-137 13.5q-39 0 -84 7t-89 22.5t-84 40t-70.5 59.5t-49 81.5t-18.5 105.5q0 32 13.5 64.5t35.5 63.5t50.5 58.5t58.5 50.5q-28 19 -56 42t-50.5 52.5t-37 64.5t-14.5 78q0 59 28.5 116t80 101.5 t124.5 71.5t162 27h553v-158h-474q-59 0 -91 -13.5t-47 -36t-17.5 -50.5t-2.5 -58t3.5 -58t26 -50.5t70.5 -36t137 -13.5q39 0 84 -7t89 -22t84 -39.5t70.5 -59.5t49 -81t18.5 -105q0 -33 -13 -66t-35 -63.5t-50.5 -58.5t-59.5 -51q28 -19 56 -36t50.5 -42t37 -62t14.5 -95 q0 -60 -28.5 -117t-80 -102t-124.5 -72t-162 -27h-553v158zM316 632q0 -30 2.5 -58t17.5 -50.5t47 -36t91 -13.5t91 13.5t47 35.5t17.5 50.5t2.5 58.5q0 29 -2.5 57t-17.5 50.5t-47 36.5t-91 14h-12q-56 -2 -86 -16t-43.5 -36t-15 -49.5t-1.5 -56.5z" />
<glyph unicode="&#xa8;" d="M316 1343q0 33 23 56t56 23t56 -23t23 -56t-23 -56t-56 -23t-56 23t-23 56zM632 1343q0 33 23 56t56 23t56 -23t23 -56t-23 -56t-56 -23t-56 23t-23 56z" />
<glyph unicode="&#xa9;" d="M0 711q0 147 40.5 276.5t113.5 226t174.5 152.5t224.5 56t224.5 -56t174.5 -152.5t113.5 -226t40.5 -276.5t-40.5 -276.5t-113.5 -226t-174.5 -152.5t-224.5 -56t-224.5 56t-174.5 152.5t-113.5 226t-40.5 276.5zM158 711q0 -114 28 -215t79.5 -176t124.5 -118.5 t163 -43.5t163 43.5t124.5 118.5t79.5 176t28 215t-28 215t-79.5 176t-124.5 118.5t-163 43.5t-163 -43.5t-124.5 -118.5t-79.5 -176t-28 -215zM316 711q0 82 15.5 154t45.5 125.5t74.5 84.5t101.5 31q50 0 89 -24t67.5 -66.5t47 -100.5t27.5 -125h-159q-6 34 -10.5 63 t-12 50t-19 33t-30.5 12q-25 0 -40.5 -18.5t-24 -51t-11.5 -75.5t-3 -92t3 -92t11.5 -75.5t24 -51t40.5 -18.5q19 0 30.5 11.5t19 32.5t12 50t10.5 64h159q-9 -68 -27.5 -125.5t-47 -100t-67.5 -66.5t-89 -24q-57 0 -101.5 31t-74.5 84.5t-45.5 125.5t-15.5 154z" />
<glyph unicode="&#xaa;" d="M158 869q0 237 237 237h79v79q0 15 -6.5 29t-17 25t-25 18t-30.5 7h-158v158h158q237 0 237 -237v-553h-237q-237 0 -237 237zM316 868q0 -35 23 -56.5t56 -21.5h79v158h-79q-38 0 -58.5 -22.5t-20.5 -57.5z" />
<glyph unicode="&#xab;" d="M158 553l316 395l79 -79l-237 -316l237 -316l-80 -79zM553 553l316 395l79 -79l-237 -316l237 -316l-80 -79z" />
<glyph unicode="&#xac;" d="M158 790v158h790v-474h-158v316h-632z" />
<glyph unicode="&#xad;" d="M158 632v158h790v-158h-790z" />
<glyph unicode="&#xae;" d="M0 711q0 147 40.5 276.5t113.5 226t174.5 152.5t224.5 56t224.5 -56t174.5 -152.5t113.5 -226t40.5 -276.5t-40.5 -276.5t-113.5 -226t-174.5 -152.5t-224.5 -56t-224.5 56t-174.5 152.5t-113.5 226t-40.5 276.5zM158 711q0 -114 28 -215t79.5 -176t124.5 -118.5 t163 -43.5t163 43.5t124.5 118.5t79.5 176t28 215t-28 215t-79.5 176t-124.5 118.5t-163 43.5t-163 -43.5t-124.5 -118.5t-79.5 -176t-28 -215zM316 316v790h237q49 0 92 -18.5t75.5 -51t51 -75.5t18.5 -92q0 -46 -13.5 -88.5t-36 -75.5t-50.5 -53t-58 -20l158 -316h-158 l-158 316v-316h-158zM474 790h79q33 0 56 23t23 56t-23 56t-56 23h-79v-158z" />
<glyph unicode="&#xaf;" d="M0 1422v158h948v-158h-948z" />
<glyph unicode="&#xb0;" d="M158 1106q0 65 25 122.5t68 100.5t100.5 68t122.5 25t122.5 -25t100.5 -68t68 -100.5t25 -122.5t-25 -122.5t-68 -100.5t-100.5 -68t-122.5 -25t-122.5 25t-100.5 68t-68 100.5t-25 122.5zM316 1106q0 -33 12.5 -61.5t34 -50t50 -34t61.5 -12.5t61.5 12.5t50 34t34 50 t12.5 61.5t-12.5 61.5t-34 50t-50 34t-61.5 12.5t-61.5 -12.5t-50 -34t-34 -50t-12.5 -61.5z" />
<glyph unicode="&#xb1;" d="M0 316v158h316v316h-316v158h316v316h316v-316h316v-158h-316v-316h316v-158h-948z" />
<glyph unicode="&#xb2;" d="M158 790v158q0 20 23.5 51.5t58.5 68.5t76 77.5t76 77.5t58.5 68.5t23.5 51.5q0 30 -13.5 46t-36 23.5t-51 8.5t-57.5 1h-158v158h236q238 0 238 -237q0 -30 -27 -73.5t-71.5 -95t-101.5 -109.5t-116 -117h316v-158h-474z" />
<glyph unicode="&#xb3;" d="M158 790v158h158q30 0 58 2t50.5 10t36 24t13.5 43t-13.5 43t-36 24t-50.5 10t-58 2v158q30 0 58.5 2t51 10t36 24t13.5 43t-13.5 43t-36 24t-51 10t-58.5 2h-158v158h237q237 0 237 -237q0 -59 -18.5 -93.5t-61.5 -64.5q43 -30 61.5 -64.5t18.5 -93.5q0 -237 -237 -237 h-237z" />
<glyph unicode="&#xb4;" d="M316 1343l395 237l79 -79l-395 -237z" />
<glyph unicode="&#xb5;" d="M0 -316v1422h316v-711q0 -59 2.5 -103.5t17.5 -74t47 -44.5t91 -15t91 15t47 44.5t17.5 74t2.5 103.5v711h316v-790q0 -82 -28.5 -141.5t-80 -98.5t-124.5 -57.5t-162 -18.5q-33 0 -63.5 1t-59 8.5t-56.5 24t-58 46.5v-396h-316z" />
<glyph unicode="&#xb6;" d="M0 948v158q0 59 27 116t71.5 101.5t101.5 71.5t116 27h632v-1737h-316v1579h-158v-1580h-158v948q-59 0 -116 27t-101.5 71.5t-71.5 101.5t-27 116z" />
<glyph unicode="&#xb7;" d="M316 790q0 33 12.5 61.5t34 50t50 34t61.5 12.5t61.5 -12.5t50 -34t34 -50t12.5 -61.5t-12.5 -61.5t-34 -50t-50 -34t-61.5 -12.5t-61.5 12.5t-50 34t-34 50t-12.5 61.5z" />
<glyph unicode="&#xb8;" d="M158 -158q89 -30 149.5 -31t97.5 21t53 65.5t16 102.5h158q0 -89 -29.5 -160.5t-89 -116t-148.5 -57t-207 17.5v158z" />
<glyph unicode="&#xb9;" d="M158 790v158h158v474l-158 -158v158l158 158h158v-632h158v-158h-474z" />
<glyph unicode="&#xba;" d="M0 316v157h948v-157h-948zM0 1027q0 82 37 154t101.5 125.5t151 84.5t184.5 31t184.5 -31t151 -84.5t101.5 -125.5t37 -154t-37 -154t-101.5 -125.5t-151 -84.5t-184.5 -31t-184.5 31t-151 84.5t-101.5 125.5t-37 154zM316 1027q0 -49 12.5 -92t34 -75.5t50 -51 t61.5 -18.5t61.5 18.5t50 51t34 75.5t12.5 92t-12.5 92t-34 75.5t-50 51t-61.5 18.5t-61.5 -18.5t-50 -51t-34 -75.5t-12.5 -92z" />
<glyph unicode="&#xbb;" d="M158 237l80 -79l315 395l-316 395l-79 -79l237 -316zM553 237l80 -79l315 395l-316 395l-79 -79l237 -316z" />
<glyph unicode="&#xbc;" d="M3 790v158h158v474l-158 -158v158l158 158h158v-632h158v-158h-474zM158 0l632 1580h158l-632 -1580h-158zM632 161v316l316 316h158v-790h-158v158h-316zM790 319h158v237l-158 -158v-79z" />
<glyph unicode="&#xbd;" d="M3 790v158h158v474l-158 -158v158l158 158h158v-632h158v-158h-474zM158 0l632 1580h158l-632 -1580h-158zM632 3v158q0 20 24 51.5t60 68.5t78 77.5t77.5 77.5t59.5 68.5t24 51.5q0 30 -14 46t-37 23.5t-52 8.5t-58 1h-162v158h241q243 0 243 -237q0 -30 -27.5 -73.5 t-73 -95t-103.5 -109.5t-118 -117h322v-158h-484z" />
<glyph unicode="&#xbe;" d="M3 790v158h158q30 0 58 2t50.5 10t36 24t13.5 43t-13.5 43t-36 24t-50.5 10t-58 2v158q30 0 58.5 2t51 10t36 24t13.5 43t-13.5 43t-36 24t-51 10t-58.5 2h-158v158h237q237 0 237 -237q0 -59 -18.5 -93.5t-61.5 -64.5q43 -30 61.5 -64.5t18.5 -93.5q0 -237 -237 -237 h-237zM158 0l632 1580h158l-632 -1580h-158zM632 161v316l316 316h158v-790h-158v158h-316zM790 319h158v237l-158 -158v-79z" />
<glyph unicode="&#xbf;" d="M0 316v237q0 20 23.5 45.5t58.5 54t76 58.5t76 58.5t58.5 54t23.5 45.5v79h316v-158q0 -20 -23.5 -45.5t-58.5 -54t-76 -58.5t-76 -58.5t-58.5 -54t-23.5 -45.5v-79q0 -59 6.5 -103.5t23.5 -74t48 -44.5t80 -15t80 15t48 44.5t23.5 74t6.5 103.5v79h316v-158 q0 -89 -40.5 -149.5t-107.5 -97.5t-152 -53t-174 -16t-174 16t-152 53t-107.5 97.5t-40.5 149.5zM316 1106v316h316v-316h-316z" />
<glyph unicode="&#xc0;" d="M0 0v1027q0 89 40.5 162t107.5 124.5t152 80t174 28.5t174 -28.5t152 -80t107.5 -124.5t40.5 -162v-1027h-316v632h-316v-632h-316zM316 790h316v237q0 59 -2.5 103.5t-17.5 74t-47 44.5t-91 15t-91 -15t-47 -44.5t-17.5 -74t-2.5 -103.5v-237zM316 1817l79 79l395 -237 l-79 -79z" />
<glyph unicode="&#xc1;" d="M0 0v1027q0 89 40.5 162t107.5 124.5t152 80t174 28.5t174 -28.5t152 -80t107.5 -124.5t40.5 -162v-1027h-316v632h-316v-632h-316zM316 790h316v237q0 59 -2.5 103.5t-17.5 74t-47 44.5t-91 15t-91 -15t-47 -44.5t-17.5 -74t-2.5 -103.5v-237zM316 1659l395 237l79 -79 l-395 -237z" />
<glyph unicode="&#xc2;" d="M0 0v1027q0 89 40.5 162t107.5 124.5t152 80t174 28.5t174 -28.5t152 -80t107.5 -124.5t40.5 -162v-1027h-316v632h-316v-632h-316zM316 790h316v237q0 59 -2.5 103.5t-17.5 74t-47 44.5t-91 15t-91 -15t-47 -44.5t-17.5 -74t-2.5 -103.5v-237zM316 1659l237 237 l237 -237l-79 -79l-158 158l-158 -158z" />
<glyph unicode="&#xc3;" d="M0 0v1027q0 89 40.5 162t107.5 124.5t152 80t174 28.5t174 -28.5t152 -80t107.5 -124.5t40.5 -162v-1027h-316v632h-316v-632h-316zM158 1659q118 237 237 237q59 0 94.5 -11.5t57.5 -29.5t35.5 -38t29 -38t37.5 -29.5t62 -11.5q30 0 58 13.5t50.5 36t36 50.5t13.5 58 l79 -79q-119 -237 -237 -237q-59 0 -94.5 11.5t-57.5 29.5t-35.5 38t-29 38t-38 29.5t-61.5 11.5q-30 0 -58 -13.5t-50.5 -36t-36 -50.5t-13.5 -58zM316 790h316v237q0 59 -2.5 103.5t-17.5 74t-47 44.5t-91 15t-91 -15t-47 -44.5t-17.5 -74t-2.5 -103.5v-237z" />
<glyph unicode="&#xc4;" d="M0 0v1027q0 89 40.5 162t107.5 124.5t152 80t174 28.5t174 -28.5t152 -80t107.5 -124.5t40.5 -162v-1027h-316v632h-316v-632h-316zM316 790h316v237q0 59 -2.5 103.5t-17.5 74t-47 44.5t-91 15t-91 -15t-47 -44.5t-17.5 -74t-2.5 -103.5v-237zM316 1659q0 33 23 56 t56 23t56 -23t23 -56t-23 -56t-56 -23t-56 23t-23 56zM632 1659q0 33 23 56t56 23t56 -23t23 -56t-23 -56t-56 -23t-56 23t-23 56z" />
<glyph unicode="&#xc5;" d="M0 0v1027q0 89 40.5 162t107.5 124.5t152 80t174 28.5t174 -28.5t152 -80t107.5 -124.5t40.5 -162v-1027h-316v632h-316v-632h-316zM316 790h316v237q0 59 -2.5 103.5t-17.5 74t-47 44.5t-91 15t-91 -15t-47 -44.5t-17.5 -74t-2.5 -103.5v-237zM316 1501q0 49 18.5 92 t51 75.5t75.5 51t92 18.5t92 -18.5t75.5 -51t51 -75.5t18.5 -92t-18.5 -92t-51 -75.5t-75.5 -51t-92 -18.5t-92 18.5t-75.5 51t-51 75.5t-18.5 92zM474 1501q0 -33 23 -56t56 -23t56 23t23 56t-23 56t-56 23t-56 -23t-23 -56z" />
<glyph unicode="&#xc6;" d="M0 0v1106q0 59 27 116t71.5 101.5t101.5 71.5t116 27h632v-158h-316v-474h158v-158h-158v-474h316v-158h-632v632h-158v-632h-158zM158 790h158v474q-45 0 -75 -18.5t-48.5 -44t-26.5 -52.5t-8 -43v-316z" />
<glyph unicode="&#xc7;" d="M45 395v632q0 89 41 162t108.5 124.5t153.5 80t176 28.5t176 -27t152.5 -71.5t106 -101.5t36.5 -116h-312q0 30 -10 58t-30 50.5t-50 36t-69 13.5q-50 0 -81 -18.5t-48.5 -51t-24 -75.5t-6.5 -92v-632q0 -49 6.5 -92t24 -75.5t48.5 -51t81 -18.5q39 0 69 13.5t50 36 t30 50.5t10 58h312q3 -59 -36.5 -116t-106 -101.5t-152.5 -71.5t-176 -27t-176 28.5t-153.5 80t-108.5 124.5t-41 162zM158 -158q89 -30 149.5 -31t97.5 21t53 65.5t16 102.5h158q0 -89 -29.5 -160.5t-89 -116t-148.5 -57t-207 17.5v158z" />
<glyph unicode="&#xc8;" d="M0 0v1422h948v-158h-632v-474h474v-158h-474v-474h632v-158h-948zM316 1817l79 79l395 -237l-79 -79z" />
<glyph unicode="&#xc9;" d="M0 0v1422h948v-158h-632v-474h474v-158h-474v-474h632v-158h-948zM316 1659l395 237l79 -79l-395 -237z" />
<glyph unicode="&#xca;" d="M0 0v1422h948v-158h-632v-474h474v-158h-474v-474h632v-158h-948zM316 1659l237 237l237 -237l-79 -79l-158 158l-158 -158z" />
<glyph unicode="&#xcb;" d="M0 0v1422h948v-158h-632v-474h474v-158h-474v-474h632v-158h-948zM316 1659q0 33 23 56t56 23t56 -23t23 -56t-23 -56t-56 -23t-56 23t-23 56zM632 1659q0 33 23 56t56 23t56 -23t23 -56t-23 -56t-56 -23t-56 23t-23 56z" />
<glyph unicode="&#xcc;" d="M0 0v158h316v1106h-316v158h948v-158h-316v-1106h316v-158h-948zM316 1817l79 79l395 -237l-79 -79z" />
<glyph unicode="&#xcd;" d="M0 0v158h316v1106h-316v158h948v-158h-316v-1106h316v-158h-948zM316 1659l395 237l79 -79l-395 -237z" />
<glyph unicode="&#xce;" d="M0 0v158h316v1106h-316v158h948v-158h-316v-1106h316v-158h-948zM316 1659l237 237l237 -237l-79 -79l-158 158l-158 -158z" />
<glyph unicode="&#xcf;" d="M0 0v158h316v1106h-316v158h948v-158h-316v-1106h316v-158h-948zM316 1659q0 33 23 56t56 23t56 -23t23 -56t-23 -56t-56 -23t-56 23t-23 56zM632 1659q0 33 23 56t56 23t56 -23t23 -56t-23 -56t-56 -23t-56 23t-23 56z" />
<glyph unicode="&#xd0;" d="M0 632v158h158v632h395q89 0 162 -28.5t124.5 -80t80 -124.5t28.5 -162v-632q0 -89 -28.5 -162t-80 -124.5t-124.5 -80t-162 -28.5h-395v632h-158zM474 158q49 0 80 15t48 44.5t23.5 74t6.5 103.5v632q0 59 -6.5 103.5t-23.5 74t-48 44.5t-80 15v-1106z" />
<glyph unicode="&#xd1;" d="M0 0v1422h237l395 -790v790h316v-1422h-237l-395 790v-790h-316zM158 1659q118 237 237 237q59 0 94.5 -11.5t57.5 -29.5t35.5 -38t29 -38t37.5 -29.5t62 -11.5q30 0 58 13.5t50.5 36t36 50.5t13.5 58l79 -79q-119 -237 -237 -237q-59 0 -94.5 11.5t-57.5 29.5t-35.5 38 t-29 38t-38 29.5t-61.5 11.5q-30 0 -58 -13.5t-50.5 -36t-36 -50.5t-13.5 -58z" />
<glyph unicode="&#xd2;" d="M0 395v632q0 89 40.5 162t107.5 124.5t152 80t174 28.5t174 -28.5t152 -80t107.5 -124.5t40.5 -162v-632q0 -89 -40.5 -162t-107.5 -124.5t-152 -80t-174 -28.5t-174 28.5t-152 80t-107.5 124.5t-40.5 162zM316 395q0 -59 2.5 -103.5t17.5 -74t47 -44.5t91 -15t91 15 t47 44.5t17.5 74t2.5 103.5v632q0 59 -2.5 103.5t-17.5 74t-47 44.5t-91 15t-91 -15t-47 -44.5t-17.5 -74t-2.5 -103.5v-632zM316 1817l79 79l395 -237l-79 -79z" />
<glyph unicode="&#xd3;" d="M0 395v632q0 89 40.5 162t107.5 124.5t152 80t174 28.5t174 -28.5t152 -80t107.5 -124.5t40.5 -162v-632q0 -89 -40.5 -162t-107.5 -124.5t-152 -80t-174 -28.5t-174 28.5t-152 80t-107.5 124.5t-40.5 162zM316 395q0 -59 2.5 -103.5t17.5 -74t47 -44.5t91 -15t91 15 t47 44.5t17.5 74t2.5 103.5v632q0 59 -2.5 103.5t-17.5 74t-47 44.5t-91 15t-91 -15t-47 -44.5t-17.5 -74t-2.5 -103.5v-632zM316 1659l395 237l79 -79l-395 -237z" />
<glyph unicode="&#xd4;" d="M0 395v632q0 89 40.5 162t107.5 124.5t152 80t174 28.5t174 -28.5t152 -80t107.5 -124.5t40.5 -162v-632q0 -89 -40.5 -162t-107.5 -124.5t-152 -80t-174 -28.5t-174 28.5t-152 80t-107.5 124.5t-40.5 162zM316 395q0 -59 2.5 -103.5t17.5 -74t47 -44.5t91 -15t91 15 t47 44.5t17.5 74t2.5 103.5v632q0 59 -2.5 103.5t-17.5 74t-47 44.5t-91 15t-91 -15t-47 -44.5t-17.5 -74t-2.5 -103.5v-632zM316 1659l237 237l237 -237l-79 -79l-158 158l-158 -158z" />
<glyph unicode="&#xd5;" d="M0 395v632q0 89 40.5 162t107.5 124.5t152 80t174 28.5t174 -28.5t152 -80t107.5 -124.5t40.5 -162v-632q0 -89 -40.5 -162t-107.5 -124.5t-152 -80t-174 -28.5t-174 28.5t-152 80t-107.5 124.5t-40.5 162zM158 1659q118 237 237 237q59 0 94.5 -11.5t57.5 -29.5 t35.5 -38t29 -38t37.5 -29.5t62 -11.5q30 0 58 13.5t50.5 36t36 50.5t13.5 58l79 -79q-119 -237 -237 -237q-59 0 -94.5 11.5t-57.5 29.5t-35.5 38t-29 38t-38 29.5t-61.5 11.5q-30 0 -58 -13.5t-50.5 -36t-36 -50.5t-13.5 -58zM316 395q0 -59 2.5 -103.5t17.5 -74t47 -44.5 t91 -15t91 15t47 44.5t17.5 74t2.5 103.5v632q0 59 -2.5 103.5t-17.5 74t-47 44.5t-91 15t-91 -15t-47 -44.5t-17.5 -74t-2.5 -103.5v-632z" />
<glyph unicode="&#xd6;" d="M0 395v632q0 89 40.5 162t107.5 124.5t152 80t174 28.5t174 -28.5t152 -80t107.5 -124.5t40.5 -162v-632q0 -89 -40.5 -162t-107.5 -124.5t-152 -80t-174 -28.5t-174 28.5t-152 80t-107.5 124.5t-40.5 162zM316 395q0 -59 2.5 -103.5t17.5 -74t47 -44.5t91 -15t91 15 t47 44.5t17.5 74t2.5 103.5v632q0 59 -2.5 103.5t-17.5 74t-47 44.5t-91 15t-91 -15t-47 -44.5t-17.5 -74t-2.5 -103.5v-632zM316 1659q0 33 23 56t56 23t56 -23t23 -56t-23 -56t-56 -23t-56 23t-23 56zM632 1659q0 33 23 56t56 23t56 -23t23 -56t-23 -56t-56 -23t-56 23 t-23 56z" />
<glyph unicode="&#xd7;" d="M177 297l256 256l-256 256l120 120l256 -256l256 256l120 -120l-256 -256l256 -256l-120 -120l-256 256l-256 -256z" />
<glyph unicode="&#xd8;" d="M-71 47l117 176q-22 38 -34 81t-12 91v632q0 89 40.5 162t107.5 124.5t152 80t174 28.5q83 0 162.5 -25t145.5 -71l95 143l142 -94l-118 -177q23 -38 35 -80.5t12 -90.5v-632q0 -89 -40.5 -162t-107.5 -124.5t-152 -80t-174 -28.5q-84 0 -163.5 24.5t-144.5 70.5 l-95 -142zM316 627l315 473q-2 41 -8 71.5t-23 51t-47 31t-79 10.5q-59 0 -91 -15t-47 -44.5t-17.5 -74t-2.5 -103.5v-400zM317 322q1 -41 7 -72t23 -51.5t47 -30.5t80 -10q59 0 91 15t47 44.5t17.5 74t2.5 103.5v399z" />
<glyph unicode="&#xd9;" d="M0 395v395v632h316v-1027q0 -59 2.5 -103.5t17.5 -74t47 -44.5t91 -15t91 15t47 44.5t17.5 74t2.5 103.5v1027h316v-1027q0 -89 -40.5 -162t-107.5 -124.5t-152 -80t-174 -28.5t-174 28.5t-152 80t-107.5 124.5t-40.5 162zM234 1817l79 79l395 -237l-79 -79z" />
<glyph unicode="&#xda;" d="M0 395v395v632h316v-1027q0 -59 2.5 -103.5t17.5 -74t47 -44.5t91 -15t91 15t47 44.5t17.5 74t2.5 103.5v1027h316v-1027q0 -89 -40.5 -162t-107.5 -124.5t-152 -80t-174 -28.5t-174 28.5t-152 80t-107.5 124.5t-40.5 162zM237 1659l395 237l79 -79l-395 -237z" />
<glyph unicode="&#xdb;" d="M0 395v395v632h316v-1027q0 -59 2.5 -103.5t17.5 -74t47 -44.5t91 -15t91 15t47 44.5t17.5 74t2.5 103.5v1027h316v-1027q0 -89 -40.5 -162t-107.5 -124.5t-152 -80t-174 -28.5t-174 28.5t-152 80t-107.5 124.5t-40.5 162zM316 1659l237 237l237 -237l-79 -79l-158 158 l-158 -158z" />
<glyph unicode="&#xdc;" d="M0 395v395v632h316v-1027q0 -59 2.5 -103.5t17.5 -74t47 -44.5t91 -15t91 15t47 44.5t17.5 74t2.5 103.5v1027h316v-1027q0 -89 -40.5 -162t-107.5 -124.5t-152 -80t-174 -28.5t-174 28.5t-152 80t-107.5 124.5t-40.5 162zM316 1659q0 33 23 56t56 23t56 -23t23 -56 t-23 -56t-56 -23t-56 23t-23 56zM632 1659q0 33 23 56t56 23t56 -23t23 -56t-23 -56t-56 -23t-56 23t-23 56z" />
<glyph unicode="&#xdd;" d="M0 1422h316l158 -632l158 632h324l-324 -948v-474h-316v474zM316 1659l395 237l79 -79l-395 -237z" />
<glyph unicode="&#xde;" d="M0 0v1422h316v-316h237q89 0 162 -27t124.5 -71.5t80 -101.5t28.5 -116v-158q0 -59 -28.5 -116t-80 -101.5t-124.5 -71.5t-162 -27h-237v-316h-316zM316 474h158q30 0 58 13.5t50.5 36t36 50.5t13.5 58v158q0 30 -13.5 58t-36 50.5t-50.5 36t-58 13.5h-158v-474z" />
<glyph unicode="&#xdf;" d="M0 0v1027q0 102 40.5 176.5t107.5 123t152 72t174 23.5t174 -28.5t152 -80t107.5 -124.5t40.5 -162q0 -59 -11.5 -106t-32 -84.5t-50 -68t-65.5 -57.5q36 -27 65.5 -57.5t50 -68t32 -84.5t11.5 -106q0 -89 -28.5 -162t-80 -124.5t-124.5 -80t-162 -28.5h-79v158 q59 0 91 15t47 44.5t17.5 74t2.5 103.5t-2.5 103.5t-17.5 74t-47 44.5t-91 15v158q59 0 91 15t47 44.5t17.5 74t2.5 103.5t-2.5 103.5t-17.5 74t-47 44.5t-91 15t-91 -15t-47 -44.5t-17.5 -74t-2.5 -103.5v-1027h-316z" />
<glyph unicode="&#xe0;" d="M0 316q0 89 37 149.5t95 97.5t128 53t135 16h237v79q0 237 -237 237h-237v158h316q89 0 174 -28.5t152 -80t107.5 -124.5t40.5 -162v-711h-553q-65 0 -135 16t-128 53t-95 97.5t-37 149.5zM234 1501l79 79l395 -237l-79 -79zM316 316q0 -59 12.5 -91t34 -47t50 -17.5 t61.5 -2.5h158v316h-158q-33 0 -61.5 -2.5t-50 -17.5t-34 -47t-12.5 -91z" />
<glyph unicode="&#xe1;" d="M0 316q0 89 37 149.5t95 97.5t128 53t135 16h237v79q0 237 -237 237h-237v158h316q89 0 174 -28.5t152 -80t107.5 -124.5t40.5 -162v-711h-553q-65 0 -135 16t-128 53t-95 97.5t-37 149.5zM316 316q0 -59 12.5 -91t34 -47t50 -17.5t61.5 -2.5h158v316h-158 q-33 0 -61.5 -2.5t-50 -17.5t-34 -47t-12.5 -91zM316 1343l395 237l79 -79l-395 -237z" />
<glyph unicode="&#xe2;" d="M0 316q0 89 37 149.5t95 97.5t128 53t135 16h237v79q0 237 -237 237h-237v158h316q89 0 174 -28.5t152 -80t107.5 -124.5t40.5 -162v-711h-553q-65 0 -135 16t-128 53t-95 97.5t-37 149.5zM316 316q0 -59 12.5 -91t34 -47t50 -17.5t61.5 -2.5h158v316h-158 q-33 0 -61.5 -2.5t-50 -17.5t-34 -47t-12.5 -91zM316 1343l237 237l237 -237l-79 -79l-158 158l-158 -158z" />
<glyph unicode="&#xe3;" d="M0 316q0 89 37 149.5t95 97.5t128 53t135 16h237v79q0 237 -237 237h-237v158h316q89 0 174 -28.5t152 -80t107.5 -124.5t40.5 -162v-711h-553q-65 0 -135 16t-128 53t-95 97.5t-37 149.5zM158 1343q118 237 237 237q59 0 94.5 -11.5t57.5 -29.5t35.5 -38t29 -38 t37.5 -29.5t62 -11.5q30 0 58 13.5t50.5 36t36 50.5t13.5 58l79 -79q-119 -237 -237 -237q-59 0 -94.5 11.5t-57.5 29.5t-35.5 38t-29 38t-38 29.5t-61.5 11.5q-30 0 -58 -13.5t-50.5 -36t-36 -50.5t-13.5 -58zM316 316q0 -59 12.5 -91t34 -47t50 -17.5t61.5 -2.5h158v316 h-158q-33 0 -61.5 -2.5t-50 -17.5t-34 -47t-12.5 -91z" />
<glyph unicode="&#xe4;" d="M0 316q0 89 37 149.5t95 97.5t128 53t135 16h237v79q0 237 -237 237h-237v158h316q89 0 174 -28.5t152 -80t107.5 -124.5t40.5 -162v-711h-553q-65 0 -135 16t-128 53t-95 97.5t-37 149.5zM316 316q0 -59 12.5 -91t34 -47t50 -17.5t61.5 -2.5h158v316h-158 q-33 0 -61.5 -2.5t-50 -17.5t-34 -47t-12.5 -91zM316 1343q0 33 23 56t56 23t56 -23t23 -56t-23 -56t-56 -23t-56 23t-23 56zM632 1343q0 33 23 56t56 23t56 -23t23 -56t-23 -56t-56 -23t-56 23t-23 56z" />
<glyph unicode="&#xe5;" d="M0 316q0 89 37 149.5t95 97.5t128 53t135 16h237v79q0 237 -237 237h-237v158h316q89 0 174 -28.5t152 -80t107.5 -124.5t40.5 -162v-711h-553q-65 0 -135 16t-128 53t-95 97.5t-37 149.5zM315 1501q0 49 18.5 92t51 75.5t75.5 51t92 18.5t92 -18.5t75.5 -51t51 -75.5 t18.5 -92t-18.5 -92t-51 -75.5t-75.5 -51t-92 -18.5t-92 18.5t-75.5 51t-51 75.5t-18.5 92zM316 316q0 -59 12.5 -91t34 -47t50 -17.5t61.5 -2.5h158v316h-158q-33 0 -61.5 -2.5t-50 -17.5t-34 -47t-12.5 -91zM473 1501q0 -33 23 -56t56 -23t56 23t23 56t-23 56t-56 23 t-56 -23t-23 -56z" />
<glyph unicode="&#xe6;" d="M0 316q0 59 15 116t44.5 101.5t74 71.5t103.5 27h79q0 79 -18 133t-46.5 89t-64 54.5t-70.5 28t-66 10t-51 1.5v158q11 0 39 -2.5t66 -7t81 -11t83.5 -15.5t74 -19.5t51.5 -23.5q11 11 31.5 25t43.5 26t45.5 20t37.5 8h158q59 0 103.5 -27t74 -71.5t44.5 -101.5t15 -116 t-15 -116t-44.5 -101.5t-74 -71.5t-103.5 -27h-79q0 -79 3 -133t8.5 -89t13 -54.5t16.5 -28t18.5 -10t19.5 -1.5q18 0 32.5 13.5t25 36t16 50.5t5.5 58h158q0 -89 -15 -149.5t-44.5 -97.5t-74 -53t-103.5 -16h-474q-59 0 -103.5 27t-74 71.5t-44.5 101.5t-15 116zM158 316 q0 -30 6 -58t16.5 -50.5t25 -36t31.5 -13.5h79v316h-79q-17 0 -31.5 -13.5t-25 -36t-16.5 -50.5t-6 -58zM632 632h79q17 0 31.5 13.5t25 36t16.5 50.5t6 58t-6 58t-16.5 50.5t-25 36t-31.5 13.5h-79v-316z" />
<glyph unicode="&#xe7;" d="M0 316v474q0 82 40.5 141.5t107.5 98.5t152 57.5t174 18.5t174 -16t151 -53t105 -97.5t36 -149.5h-308q0 30 -2.5 58t-17.5 50.5t-47 36t-91 13.5t-91 -15t-47 -44.5t-17.5 -74t-2.5 -103.5v-316q0 -59 2.5 -103.5t17.5 -74t47 -44.5t91 -15t91 13.5t47 36t17.5 50.5 t2.5 58h308q3 -89 -36 -149.5t-105 -97.5t-151 -53t-174 -16t-174 18.5t-152 57.5t-107.5 98.5t-40.5 141.5zM158 -158q89 -30 149.5 -31t97.5 21t53 65.5t16 102.5h158q0 -89 -29.5 -160.5t-89 -116t-148.5 -57t-207 17.5v158z" />
<glyph unicode="&#xe8;" d="M0 395v316q0 89 40.5 162t107.5 124.5t152 80t174 28.5t174 -28.5t152 -80t107.5 -124.5t40.5 -162v-237h-632q0 -79 2.5 -138t17.5 -98.5t47 -59.5t91 -20h474v-158h-553q-89 0 -162 31t-124.5 84.5t-80 125.5t-28.5 154zM234 1501l79 79l395 -237l-79 -79zM316 632h316 q0 89 -2.5 149.5t-17.5 97.5t-47 53t-91 16t-91 -16t-47 -53t-17.5 -97.5t-2.5 -149.5z" />
<glyph unicode="&#xe9;" d="M0 395v316q0 89 40.5 162t107.5 124.5t152 80t174 28.5t174 -28.5t152 -80t107.5 -124.5t40.5 -162v-237h-632q0 -79 2.5 -138t17.5 -98.5t47 -59.5t91 -20h474v-158h-553q-89 0 -162 31t-124.5 84.5t-80 125.5t-28.5 154zM237 1343l395 237l79 -79l-395 -237zM316 632 h316q0 89 -2.5 149.5t-17.5 97.5t-47 53t-91 16t-91 -16t-47 -53t-17.5 -97.5t-2.5 -149.5z" />
<glyph unicode="&#xea;" d="M0 395v316q0 89 40.5 162t107.5 124.5t152 80t174 28.5t174 -28.5t152 -80t107.5 -124.5t40.5 -162v-237h-632q0 -79 2.5 -138t17.5 -98.5t47 -59.5t91 -20h474v-158h-553q-89 0 -162 31t-124.5 84.5t-80 125.5t-28.5 154zM316 632h316q0 89 -2.5 149.5t-17.5 97.5 t-47 53t-91 16t-91 -16t-47 -53t-17.5 -97.5t-2.5 -149.5zM316 1343l237 237l237 -237l-79 -79l-158 158l-158 -158z" />
<glyph unicode="&#xeb;" d="M0 395v316q0 89 40.5 162t107.5 124.5t152 80t174 28.5t174 -28.5t152 -80t107.5 -124.5t40.5 -162v-237h-632q0 -79 2.5 -138t17.5 -98.5t47 -59.5t91 -20h474v-158h-553q-89 0 -162 31t-124.5 84.5t-80 125.5t-28.5 154zM316 632h316q0 89 -2.5 149.5t-17.5 97.5 t-47 53t-91 16t-91 -16t-47 -53t-17.5 -97.5t-2.5 -149.5zM316 1343q0 33 23 56t56 23t56 -23t23 -56t-23 -56t-56 -23t-56 23t-23 56zM632 1343q0 33 23 56t56 23t56 -23t23 -56t-23 -56t-56 -23t-56 23t-23 56z" />
<glyph unicode="&#xec;" d="M316 948v158h474v-1106h-316v948h-158zM316 1501l79 79l395 -237l-79 -79z" />
<glyph unicode="&#xed;" d="M313 951v159h479v-1110h-320v951h-159zM316 1343l395 237l79 -79l-395 -237z" />
<glyph unicode="&#xee;" d="M316 948v158h474v-1106h-316v948h-158zM316 1343l237 237l237 -237l-79 -79l-158 158l-158 -158z" />
<glyph unicode="&#xef;" d="M316 948v158h474v-1106h-316v948h-158zM316 1343q0 33 23 56t56 23t56 -23t23 -56t-23 -56t-56 -23t-56 23t-23 56zM632 1343q0 33 23 56t56 23t56 -23t23 -56t-23 -56t-56 -23t-56 23t-23 56z" />
<glyph unicode="&#xf0;" d="M0 316v158q0 60 26.5 116t71.5 101t141 72q97 27 156 27h316q-17 24 -40 59q-20 29 -49.5 73.5t-68.5 104.5q-158 237 -316 237v158q17 -9 42 -20q21 -10 52.5 -24.5t74.5 -34.5q171 -79 356 -316l186 -237v-474q0 -60 -27 -116.5t-72 -101.5q-44 -44 -141 -71 q-96 -27 -155 -27h-158q-59 0 -156 27q-95 27 -141 71q-45 45 -71.5 101.5t-26.5 116.5zM316 395q0 -237 237 -237q79 0 79 237v237h-79q-237 0 -237 -237zM316 948v158l316 316v-158z" />
<glyph unicode="&#xf1;" d="M0 0v1106h316v-80q0 30 24.5 46t60.5 23.5t77.5 9t74.5 1.5q89 0 162 -16t124.5 -53t80 -97.5t28.5 -149.5v-790h-316v711q0 59 -2.5 103.5t-17.5 74t-47 44.5t-91 15t-91 -16t-47 -47t-17.5 -75t-2.5 -99v-711h-316zM158 1343q118 237 237 237q59 0 94.5 -11.5 t57.5 -29.5t35.5 -38t29 -38t37.5 -29.5t62 -11.5q30 0 58 13.5t50.5 36t36 50.5t13.5 58l79 -79q-119 -237 -237 -237q-59 0 -94.5 11.5t-57.5 29.5t-35.5 38t-29 38t-38 29.5t-61.5 11.5q-30 0 -58 -13.5t-50.5 -36t-36 -50.5t-13.5 -58z" />
<glyph unicode="&#xf2;" d="M0 316v474q0 89 40.5 149.5t107.5 97.5t152 53t174 16t174 -16t152 -53t107.5 -97.5t40.5 -149.5v-474q0 -89 -40.5 -149.5t-107.5 -97.5t-152 -53t-174 -16t-174 16t-152 53t-107.5 97.5t-40.5 149.5zM234 1501l79 79l395 -237l-79 -79zM316 395q0 -59 2.5 -103.5 t17.5 -74t47 -44.5t91 -15t91 15t47 44.5t17.5 74t2.5 103.5v316q0 59 -2.5 103.5t-17.5 74t-47 44.5t-91 15t-91 -15t-47 -44.5t-17.5 -74t-2.5 -103.5v-316z" />
<glyph unicode="&#xf3;" d="M0 316v474q0 89 40.5 149.5t107.5 97.5t152 53t174 16t174 -16t152 -53t107.5 -97.5t40.5 -149.5v-474q0 -89 -40.5 -149.5t-107.5 -97.5t-152 -53t-174 -16t-174 16t-152 53t-107.5 97.5t-40.5 149.5zM316 395q0 -59 2.5 -103.5t17.5 -74t47 -44.5t91 -15t91 15t47 44.5 t17.5 74t2.5 103.5v316q0 59 -2.5 103.5t-17.5 74t-47 44.5t-91 15t-91 -15t-47 -44.5t-17.5 -74t-2.5 -103.5v-316zM316 1343l395 237l79 -79l-395 -237z" />
<glyph unicode="&#xf4;" d="M0 316v474q0 89 40.5 149.5t107.5 97.5t152 53t174 16t174 -16t152 -53t107.5 -97.5t40.5 -149.5v-474q0 -89 -40.5 -149.5t-107.5 -97.5t-152 -53t-174 -16t-174 16t-152 53t-107.5 97.5t-40.5 149.5zM316 395q0 -59 2.5 -103.5t17.5 -74t47 -44.5t91 -15t91 15t47 44.5 t17.5 74t2.5 103.5v316q0 59 -2.5 103.5t-17.5 74t-47 44.5t-91 15t-91 -15t-47 -44.5t-17.5 -74t-2.5 -103.5v-316zM316 1343l237 237l237 -237l-79 -79l-158 158l-158 -158z" />
<glyph unicode="&#xf5;" d="M0 316v474q0 89 40.5 149.5t107.5 97.5t152 53t174 16t174 -16t152 -53t107.5 -97.5t40.5 -149.5v-474q0 -89 -40.5 -149.5t-107.5 -97.5t-152 -53t-174 -16t-174 16t-152 53t-107.5 97.5t-40.5 149.5zM158 1343q118 237 237 237q59 0 94.5 -11.5t57.5 -29.5t35.5 -38 t29 -38t37.5 -29.5t62 -11.5q30 0 58 13.5t50.5 36t36 50.5t13.5 58l79 -79q-119 -237 -237 -237q-59 0 -94.5 11.5t-57.5 29.5t-35.5 38t-29 38t-38 29.5t-61.5 11.5q-30 0 -58 -13.5t-50.5 -36t-36 -50.5t-13.5 -58zM316 395q0 -59 2.5 -103.5t17.5 -74t47 -44.5t91 -15 t91 15t47 44.5t17.5 74t2.5 103.5v316q0 59 -2.5 103.5t-17.5 74t-47 44.5t-91 15t-91 -15t-47 -44.5t-17.5 -74t-2.5 -103.5v-316z" />
<glyph unicode="&#xf6;" d="M0 316v474q0 89 40.5 149.5t107.5 97.5t152 53t174 16t174 -16t152 -53t107.5 -97.5t40.5 -149.5v-474q0 -89 -40.5 -149.5t-107.5 -97.5t-152 -53t-174 -16t-174 16t-152 53t-107.5 97.5t-40.5 149.5zM316 395q0 -59 2.5 -103.5t17.5 -74t47 -44.5t91 -15t91 15t47 44.5 t17.5 74t2.5 103.5v316q0 59 -2.5 103.5t-17.5 74t-47 44.5t-91 15t-91 -15t-47 -44.5t-17.5 -74t-2.5 -103.5v-316zM316 1343q0 33 23 56t56 23t56 -23t23 -56t-23 -56t-56 -23t-56 23t-23 56zM632 1343q0 33 23 56t56 23t56 -23t23 -56t-23 -56t-56 -23t-56 23t-23 56z " />
<glyph unicode="&#xf7;" d="M0 632v158h948v-158h-948zM316 316q0 33 12.5 61.5t34 50t50 34t61.5 12.5t61.5 -12.5t50 -34t34 -50t12.5 -61.5t-12.5 -61.5t-34 -50t-50 -34t-61.5 -12.5t-61.5 12.5t-50 34t-34 50t-12.5 61.5zM316 1106q0 33 12.5 61.5t34 50t50 34t61.5 12.5t61.5 -12.5t50 -34 t34 -50t12.5 -61.5t-12.5 -61.5t-34 -50t-50 -34t-61.5 -12.5t-61.5 12.5t-50 34t-34 50t-12.5 61.5z" />
<glyph unicode="&#xf8;" d="M-65 55l101 118q-17 30 -26.5 65.5t-9.5 77.5v474q0 89 40.5 149.5t107.5 97.5t152 53t174 16q84 0 164 -14.5t146 -46.5l99 116l130 -110l-102 -119q37 -60 37 -142v-474q0 -89 -40.5 -149.5t-107.5 -97.5t-152 -53t-174 -16q-85 0 -164.5 14t-145.5 46l-99 -115z M316 499l307 358q-6 23 -16 40t-27.5 28.5t-43.5 17t-62 5.5q-59 0 -91 -15t-47 -44.5t-17.5 -74t-2.5 -103.5v-212zM325 248q5 -23 15.5 -39.5t27.5 -28t43 -17t63 -5.5q59 0 91 15t47 44.5t17.5 74t2.5 103.5v211z" />
<glyph unicode="&#xf9;" d="M0 316v790h316v-711q0 -59 2.5 -103.5t17.5 -74t47 -44.5t91 -15t91 19t47 51.5t17.5 75.5t2.5 91v711h316v-1106h-316v79q-30 -30 -58 -46t-56.5 -23.5t-59 -8.5t-63.5 -1q-89 0 -162 16t-124.5 53t-80 97.5t-28.5 149.5zM234 1501l79 79l395 -237l-79 -79z" />
<glyph unicode="&#xfa;" d="M0 316v790h316v-711q0 -59 2.5 -103.5t17.5 -74t47 -44.5t91 -15t91 19t47 51.5t17.5 75.5t2.5 91v711h316v-1106h-316v79q-30 -30 -58 -46t-56.5 -23.5t-59 -8.5t-63.5 -1q-89 0 -162 16t-124.5 53t-80 97.5t-28.5 149.5zM316 1343l395 237l79 -79l-395 -237z" />
<glyph unicode="&#xfb;" d="M0 316v790h316v-711q0 -59 2.5 -103.5t17.5 -74t47 -44.5t91 -15t91 19t47 51.5t17.5 75.5t2.5 91v711h316v-1106h-316v79q-30 -30 -58 -46t-56.5 -23.5t-59 -8.5t-63.5 -1q-89 0 -162 16t-124.5 53t-80 97.5t-28.5 149.5zM316 1343l237 237l237 -237l-79 -79l-158 158 l-158 -158z" />
<glyph unicode="&#xfc;" d="M0 316v790h316v-711q0 -59 2.5 -103.5t17.5 -74t47 -44.5t91 -15t91 19t47 51.5t17.5 75.5t2.5 91v711h316v-1106h-316v79q-30 -30 -58 -46t-56.5 -23.5t-59 -8.5t-63.5 -1q-89 0 -162 16t-124.5 53t-80 97.5t-28.5 149.5zM316 1343q0 33 23 56t56 23t56 -23t23 -56 t-23 -56t-56 -23t-56 23t-23 56zM632 1343q0 33 23 56t56 23t56 -23t23 -56t-23 -56t-56 -23t-56 23t-23 56z" />
<glyph unicode="&#xfd;" d="M0 316v790h316v-711q0 -59 2.5 -103.5t17.5 -74t47 -44.5t91 -15t91 15t47 44.5t17.5 74t2.5 103.5v711h316v-1264q0 -89 -28.5 -149.5t-80 -97.5t-124.5 -53t-162 -16h-395v158h316q59 0 91 15t47 44.5t17.5 74t2.5 103.5v158q0 -30 -24.5 -46t-60.5 -23.5t-77.5 -8.5 t-74.5 -1q-89 0 -162 16t-124.5 53t-80 97.5t-28.5 149.5zM237 1343l395 237l79 -79l-395 -237z" />
<glyph unicode="&#xfe;" d="M0 -474v1895l316 1v-474h237q158 0 276.5 -118.5t118.5 -355.5t-118.5 -355.5t-276.5 -118.5h-238v-473zM315 158h159q79 0 118.5 79t39.5 237t-39.5 237t-118.5 79h-158z" />
<glyph unicode="&#xff;" d="M0 316v790h316v-711q0 -59 2.5 -103.5t17.5 -74t47 -44.5t91 -15t91 15t47 44.5t17.5 74t2.5 103.5v711h316v-1264q0 -89 -28.5 -149.5t-80 -97.5t-124.5 -53t-162 -16h-395v158h316q59 0 91 15t47 44.5t17.5 74t2.5 103.5v158q0 -30 -24.5 -46t-60.5 -23.5t-77.5 -8.5 t-74.5 -1q-89 0 -162 16t-124.5 53t-80 97.5t-28.5 149.5zM316 1343q0 33 23 56t56 23t56 -23t23 -56t-23 -56t-56 -23t-56 23t-23 56zM632 1343q0 33 23 56t56 23t56 -23t23 -56t-23 -56t-56 -23t-56 23t-23 56z" />
<glyph unicode="&#x152;" d="M0 395v632q0 89 15 162t44.5 124.5t74 80t103.5 28.5q41 0 79 -16v16h632v-158h-316v-474h158v-158h-158v-474h316v-158h-632v15q-36 -15 -79 -15q-59 0 -103.5 28.5t-74 80t-44.5 124.5t-15 162zM158 395q0 -59 1 -103.5t8.5 -74t23.5 -44.5t46 -15q26 0 41.5 15 t24 44.5t11 74t2.5 103.5v632q0 59 -1 103.5t-8.5 74t-23.5 44.5t-46 15t-46 -15t-23.5 -44.5t-8.5 -74t-1 -103.5v-632z" />
<glyph unicode="&#x153;" d="M0 395v316q0 89 15 162t44.5 124.5t74 80t103.5 28.5q39 0 84 -13t89 -37t84 -58.5t70.5 -78.5t49 -96.5t18.5 -111.5v-316q0 -59 -18.5 -111.5t-49 -96.5t-70.5 -78.5t-84 -58.5t-89 -37t-84 -13q-59 0 -103.5 28.5t-74 80t-44.5 124.5t-15 162zM158 395q0 -59 1 -103.5 t8.5 -74t23.5 -44.5t46 -15q29 0 45 15t23.5 44.5t9 74t1.5 103.5v316q0 59 -1.5 103.5t-9 74t-23.5 44.5t-45 15q-30 0 -46 -15t-23.5 -44.5t-8.5 -74t-1 -103.5v-316zM316 395v316q0 59 18.5 111.5t49 96.5t70.5 78.5t84 58.5t88.5 37t84.5 13q59 0 103.5 -28.5t74 -80 t44.5 -124.5t15 -162v-237h-316v-79q0 -59 1 -103.5t8.5 -74t23.5 -44.5t46 -15h237v-158h-237q-40 0 -84.5 13t-88.5 37t-84 58.5t-70.5 78.5t-49 96.5t-18.5 111.5zM632 632h158v79q0 49 -1.5 92t-9 75.5t-23.5 51t-45 18.5q-30 0 -46 -18.5t-23.5 -51t-8.5 -75.5t-1 -92 v-79z" />
<glyph unicode="&#x178;" d="M0 1422h316l158 -632l158 632h324l-324 -948v-474h-316v474zM316 1659q0 33 23 56t56 23t56 -23t23 -56t-23 -56t-56 -23t-56 23t-23 56zM632 1659q0 33 23 56t56 23t56 -23t23 -56t-23 -56t-56 -23t-56 23t-23 56z" />
<glyph unicode="&#x2c6;" d="M316 1343l237 237l237 -237l-79 -79l-158 158l-158 -158z" />
<glyph unicode="&#x2dc;" d="M158 1343q118 237 237 237q59 0 94.5 -11.5t57.5 -29.5t35.5 -38t29 -38t37.5 -29.5t62 -11.5q30 0 58 13.5t50.5 36t36 50.5t13.5 58l79 -79q-119 -237 -237 -237q-59 0 -94.5 11.5t-57.5 29.5t-35.5 38t-29 38t-38 29.5t-61.5 11.5q-30 0 -58 -13.5t-50.5 -36 t-36 -50.5t-13.5 -58z" />
<glyph unicode="&#x2000;" horiz-adv-x="948" />
<glyph unicode="&#x2001;" horiz-adv-x="1896" />
<glyph unicode="&#x2002;" horiz-adv-x="948" />
<glyph unicode="&#x2003;" horiz-adv-x="1896" />
<glyph unicode="&#x2004;" horiz-adv-x="632" />
<glyph unicode="&#x2005;" horiz-adv-x="474" />
<glyph unicode="&#x2006;" horiz-adv-x="316" />
<glyph unicode="&#x2007;" horiz-adv-x="316" />
<glyph unicode="&#x2008;" horiz-adv-x="237" />
<glyph unicode="&#x2009;" horiz-adv-x="379" />
<glyph unicode="&#x200a;" horiz-adv-x="105" />
<glyph unicode="&#x2010;" d="M158 632v158h790v-158h-790z" />
<glyph unicode="&#x2011;" d="M158 632v158h790v-158h-790z" />
<glyph unicode="&#x2012;" d="M158 632v158h790v-158h-790z" />
<glyph unicode="&#x2013;" d="M158 473v157h788v-157h-788z" />
<glyph unicode="&#x2014;" d="M0 475v156h1106v-156h-315h-791z" />
<glyph unicode="&#x2018;" d="M316 1106v158q0 59 15 116t44.5 101.5t74 71.5t103.5 27q33 0 56 -23t23 -56t-23 -56t-56 -23q-30 0 -46 -10.5t-23.5 -30.5t-8.5 -49.5t-1 -67.5q33 0 61.5 -12.5t50 -34t34 -50t12.5 -61.5t-12.5 -61.5t-34 -50t-50 -34t-61.5 -12.5t-61.5 12.5t-50 34t-34 50 t-12.5 61.5z" />
<glyph unicode="&#x2019;" d="M316 1031q0 34 23 57t56 23q30 0 46 10.5t23.5 30.5t8.5 50t1 68q-33 0 -61.5 12.5t-50 34t-34 50.5t-12.5 62t12.5 62t34 50.5t50 34t61.5 12.5t61.5 -12.5t50 -34t34 -50.5t12.5 -62v-159q0 -59 -15 -116.5t-44.5 -102.5t-74 -72t-103.5 -27q-33 0 -56 23t-23 56z" />
<glyph unicode="&#x201a;" d="M316 158q0 33 12.5 61.5t34 50t50 34t61.5 12.5t61.5 -12.5t50 -34t34 -50t12.5 -61.5v-158q0 -59 -15 -116t-44.5 -101.5t-74 -71.5t-103.5 -27q-33 0 -56 23t-23 56t23 56t56 23q30 0 46 10.5t23.5 30.5t8.5 49.5t1 67.5q-33 0 -61.5 12.5t-50 34t-34 50t-12.5 61.5z " />
<glyph unicode="&#x201c;" d="M158 1106v158q0 59 15 116t44.5 101.5t74 71.5t103.5 27q33 0 56 -23t23 -56t-23 -56t-56 -23q-30 0 -46 -10.5t-23.5 -30.5t-8.5 -49.5t-1 -67.5q33 0 61.5 -12.5t50 -34t34 -50t12.5 -61.5t-12.5 -61.5t-34 -50t-50 -34t-61.5 -12.5t-61.5 12.5t-50 34t-34 50 t-12.5 61.5zM632 1106v158q0 59 15 116t44.5 101.5t73.5 71.5t103 27q33 0 56 -23t23 -56t-23 -56t-56 -23q-30 0 -46 -10.5t-23.5 -30.5t-8.5 -49.5t-1 -67.5q33 0 61.5 -12.5t50 -34t34 -50t12.5 -61.5t-12.5 -61.5t-34 -50t-50 -34t-61.5 -12.5q-32 0 -60.5 12.5t-50 34 t-34 50t-12.5 61.5z" />
<glyph unicode="&#x201d;" d="M159 1027q0 33 23 56t56 23q30 0 46 10.5t23.5 30.5t8 49.5t0.5 67.5q-32 0 -60.5 12.5t-50 34t-34 50t-12.5 61.5t12.5 61.5t34 50t50 34t60.5 12.5q33 0 61.5 -12.5t50 -34t34 -50t12.5 -61.5v-158q0 -59 -15 -116t-44.5 -101.5t-73.5 -71.5t-103 -27q-33 0 -56 23 t-23 56zM633 1027q0 33 23 56t56 23q30 0 46 10.5t23.5 30.5t8 49.5t0.5 67.5q-32 0 -60.5 12.5t-50 34t-34 50t-12.5 61.5t12.5 61.5t34 50t50 34t60.5 12.5q33 0 61.5 -12.5t50 -34t34 -50t12.5 -61.5v-158q0 -59 -15 -116t-44.5 -101.5t-73.5 -71.5t-103 -27 q-33 0 -56 23t-23 56z" />
<glyph unicode="&#x201e;" d="M158 158q0 33 12.5 61.5t34 50t50 34t61.5 12.5t61.5 -12.5t50 -34t34 -50t12.5 -61.5v-158q0 -59 -15 -116t-44.5 -101.5t-74 -71.5t-103.5 -27q-33 0 -56 23t-23 56t23 56t56 23q30 0 46 10.5t23.5 30.5t8.5 49.5t1 67.5q-33 0 -61.5 12.5t-50 34t-34 50t-12.5 61.5z M632 158q0 33 12.5 61.5t34 50t50 34t61.5 12.5t61.5 -12.5t50 -34t34 -50t12.5 -61.5v-158q0 -59 -15 -116t-44.5 -101.5t-74 -71.5t-103.5 -27q-33 0 -56 23t-23 56t23 56t56 23q30 0 46 10.5t23.5 30.5t8.5 49.5t1 67.5q-33 0 -61.5 12.5t-50 34t-34 50t-12.5 61.5z" />
<glyph unicode="&#x2022;" d="M316 711q0 49 18.5 92t51 75.5t75.5 51t92 18.5t92 -18.5t75.5 -51t51 -75.5t18.5 -92t-18.5 -92t-51 -75.5t-75.5 -51t-92 -18.5t-92 18.5t-75.5 51t-51 75.5t-18.5 92z" />
<glyph unicode="&#x2026;" d="M158 0v316h158v-316h-158zM474 0v316h158v-316h-158zM790 0v316h158v-316h-158z" />
<glyph unicode="&#x202f;" horiz-adv-x="379" />
<glyph unicode="&#x2039;" d="M158 553l316 395l237 -79l-237 -316l237 -316l-237 -79z" />
<glyph unicode="&#x203a;" d="M316 237l237 -79l316 395l-316 395l-237 -79l237 -316z" />
<glyph unicode="&#x205f;" horiz-adv-x="474" />
<glyph unicode="&#x20ac;" d="M0 474l79 158h51v158h-130l79 158h79q0 89 40.5 174t107.5 152t152 107.5t174 40.5t160.5 -7.5t129.5 -25.5t103 -48.5t81 -76.5l-79 -158q-30 59 -72 91t-87 47t-87 17.5t-70 2.5q-59 0 -103.5 -27t-74 -71.5t-44.5 -101.5t-15 -116h316l-79 -158h-237v-158h316 l-79 -158h-237q0 -59 15 -116t44.5 -101.5t74 -71.5t103.5 -27q28 0 59 2.5t68.5 17.5t83.5 47t105 91l79 -158q-36 -47 -86.5 -77.5t-111.5 -48.5t-131 -25t-145 -7q-89 0 -174 40.5t-152 107.5t-107.5 152t-40.5 174h-158z" />
<glyph unicode="&#x2122;" d="M0 1264v158h632l79 -158l79 158h158v-632h-158v395l-79 -158l-79 158v-395h-159l1 474h-158v-474h-158v474h-158z" />
<glyph unicode="&#x25fc;" horiz-adv-x="1105" d="M0 0v1105h1105v-1105h-1105z" />
<glyph unicode="&#xfb01;" d="M158 790v158h158v79q0 82 31 154t84.5 125.5t125.5 84.5t154 31h237v-158h-237q-49 0 -92 -18.5t-75.5 -51t-51 -75.5t-18.5 -92v-79h474v-948h-158v790h-316v-790h-158v790h-158z" />
<glyph unicode="&#xfb02;" d="M158 790v158h158v79q0 82 31 154t84.5 125.5t125.5 84.5t154 31h237v-1422h-158v790h-316v-790h-158v790h-158zM474 948h316v316h-79q-49 0 -92 -18.5t-75.5 -51t-51 -75.5t-18.5 -92v-79z" />
<glyph unicode="&#xfb03;" d="M0 790v158h158v79q0 82 31 154t84.5 125.5t125.5 84.5t154 31v-158q-49 0 -92 -18.5t-75.5 -51t-51 -75.5t-18.5 -92v-79h237v79q0 82 31 154t84.5 125.5t125.5 84.5t154 31v-76q1 32 24 54t55 22q33 0 56 -23t23 -56t-23 -56t-56 -23q-32 0 -55 21.5t-24 53.5v-75 q-49 0 -92 -18.5t-75.5 -51t-51 -75.5t-18.5 -92v-79h395v-948h-158v790h-237v-790h-158v790h-237v-790h-158v790h-158z" />
<glyph unicode="&#xfb04;" d="M0 790v158h158v79q0 82 31 154t84.5 125.5t125.5 84.5t154 31v-158q-49 0 -92 -18.5t-75.5 -51t-51 -75.5t-18.5 -92v-79h237v79q0 82 31 154t84.5 125.5t125.5 84.5t154 31h158v-1422h-158v790h-237v-790h-158v790h-237v-790h-158v790h-158zM711 948h237v316 q-49 0 -92 -18.5t-75.5 -51t-51 -75.5t-18.5 -92v-79z" />
</font>
</defs>
</svg>
